<svg width="88" height="88" viewBox="0 0 88 88" fill="none" xmlns="http://www.w3.org/2000/svg">
<circle cx="44" cy="44" r="44" fill="#F9315B"/>
<circle cx="44.2431" cy="44.2431" r="38.8674" stroke="white" stroke-width="2"/>
<path fill-rule="evenodd" clip-rule="evenodd" d="M52.333 21.5C53.253 21.5 54 22.246 54 23.167V34.833C54 35.753 53.254 36.5 52.333 36.5H35.667C34.747 36.5 34 35.754 34 34.833V23.167C34 22.247 34.746 21.5 35.667 21.5H52.333ZM41.168 30.328L36.258 35.18H51.583L46.726 30.378L44 32.265L41.168 30.328ZM52.64 26.292L47.844 29.608L52.64 34.344V26.292ZM35.361 26.353V34.189L40.047 29.558L35.361 26.353ZM52.317 22.821H35.698C35.6067 22.8167 35.5173 22.8475 35.448 22.907C35.4172 22.9346 35.3934 22.9691 35.3786 23.0077C35.3639 23.0463 35.3585 23.0879 35.363 23.129V24.749L44 30.656L52.644 24.691V23.199C52.645 23.065 52.614 22.968 52.552 22.907C52.5212 22.877 52.4845 22.8539 52.4442 22.8391C52.4038 22.8243 52.3609 22.8181 52.318 22.821H52.317Z" fill="white"/>
<path d="M21.564 51.462V55.999C21.564 57.455 21.902 57.936 23.293 57.936C23.553 57.936 24.463 57.936 24.736 57.936C25.958 57.936 26.335 57.299 26.478 55.063C26.075 54.959 25.425 54.699 25.1 54.439C25.048 56.22 24.983 56.532 24.593 56.532C24.385 56.532 23.709 56.532 23.54 56.532C23.176 56.532 23.098 56.48 23.098 55.999V51.462H21.564ZM19.705 52.463C19.588 53.919 19.302 55.427 18.756 56.428L20.147 57.039C20.732 55.986 20.979 54.27 21.109 52.775L19.705 52.463ZM21.655 50.019C22.721 50.565 24.099 51.449 24.736 52.047L25.867 50.89C25.152 50.279 23.735 49.486 22.695 48.992L21.655 50.019ZM25.62 52.658C26.374 54.049 27.063 55.856 27.232 57.026L28.766 56.402C28.558 55.206 27.791 53.464 27.011 52.112L25.62 52.658ZM22.097 45.963V48.329H23.722V45.963H22.097ZM18.171 47.484V48.966H28.441V47.484H18.171ZM17.43 47.484V50.773C17.43 52.658 17.352 55.401 16.26 57.273C16.637 57.429 17.326 57.884 17.612 58.144C18.795 56.103 18.99 52.879 18.99 50.773V47.484H17.43ZM32.679 54.777V55.882H39.374V54.777H32.679ZM30.703 52.684V53.893H42.39V52.684H30.703ZM34.499 51.878C33.927 53.139 32.653 54.283 30.3 54.985C30.599 55.206 31.015 55.739 31.184 56.09C33.732 55.18 35.175 53.841 36.007 52.112L34.499 51.878ZM39.192 53.074L37.996 53.529C38.854 54.712 40.31 55.739 41.844 56.233C42.052 55.856 42.494 55.284 42.819 54.985C41.376 54.66 39.92 53.919 39.192 53.074ZM38.828 54.777V54.946C38.737 56.142 38.633 56.662 38.464 56.818C38.347 56.909 38.243 56.935 38.048 56.935C37.814 56.935 37.32 56.922 36.8 56.87C36.995 57.208 37.138 57.715 37.164 58.105C37.801 58.118 38.399 58.118 38.737 58.079C39.127 58.04 39.426 57.962 39.686 57.702C39.985 57.39 40.141 56.701 40.271 55.297C40.297 55.115 40.31 54.777 40.31 54.777H38.828ZM35.5 54.088C35.279 55.674 34.772 56.571 31.756 57.052C32.016 57.325 32.367 57.871 32.497 58.235C35.955 57.572 36.696 56.259 36.982 54.088H35.5ZM30.872 46.652V47.887H42.208V46.652H30.872ZM33.602 45.963V48.342H35.123V45.963H33.602ZM37.905 45.963V48.342H39.439V45.963H37.905ZM33.602 50.799H39.465V51.306H33.602V50.799ZM33.602 49.434H39.465V49.941H33.602V49.434ZM32.107 48.537V52.216H41.038V48.537H32.107ZM52.569 46.522H50.684C50.71 46.691 50.762 47.133 50.801 47.653C50.853 48.342 50.853 50.838 50.853 51.644L52.478 52.19C52.465 51.15 52.439 48.498 52.478 47.64C52.491 47.432 52.53 46.743 52.569 46.522ZM45.211 48.147L45.25 49.707C47.213 49.603 49.8 49.499 52.166 49.499C54.077 49.499 55.403 49.538 56.209 49.577L56.235 48.043C55.507 48.03 53.531 48.043 52.205 48.043C50.58 48.043 47.148 48.147 45.211 48.147ZM52.257 51.995L51.035 51.657C51.451 53.204 50.918 53.724 50.307 53.724C49.774 53.724 49.293 53.347 49.293 52.762C49.293 52.073 49.8 51.722 50.307 51.722C50.879 51.722 51.334 52.125 51.334 52.97C51.334 55.245 49.605 56.116 47.395 56.597L48.773 57.975C51.945 57.078 52.946 54.933 52.946 53.23C52.946 51.618 52.049 50.357 50.333 50.357C48.929 50.357 47.733 51.319 47.733 52.788C47.733 54.374 48.981 55.167 49.982 55.167C51.477 55.167 52.257 54.114 52.257 51.995ZM60.98 47.107L61.032 48.797C61.331 48.745 61.734 48.719 62.085 48.693C62.787 48.641 64.581 48.576 65.244 48.55C64.607 49.122 63.242 50.214 62.514 50.812C61.76 51.449 60.187 52.775 59.264 53.503L60.447 54.725C61.838 53.152 63.125 52.086 65.127 52.086C66.648 52.086 67.818 52.879 67.818 54.062C67.818 55.453 66.7 56.285 64.503 56.285C63.71 56.285 63.177 55.96 63.177 55.479C63.177 55.141 63.502 54.842 63.983 54.842C64.75 54.842 65.244 55.492 65.27 56.428L66.791 56.233C66.752 54.803 65.764 53.607 63.983 53.607C62.605 53.607 61.643 54.569 61.643 55.622C61.643 56.935 63.008 57.754 64.815 57.754C67.961 57.754 69.521 56.129 69.521 54.075C69.521 52.19 67.844 50.812 65.634 50.812C65.231 50.812 64.841 50.838 64.399 50.955C65.231 50.305 66.596 49.161 67.298 48.667C67.584 48.446 67.896 48.264 68.195 48.069L67.363 46.899C67.207 46.951 66.908 47.003 66.362 47.042C65.621 47.107 62.852 47.172 62.15 47.172C61.786 47.172 61.344 47.146 60.98 47.107Z" fill="white"/>
</svg>
