<svg width="16" height="16" viewBox="0 0 16 16" fill="none" xmlns="http://www.w3.org/2000/svg">
<path d="M8.46671 10.2L10.2 8.46665C10.3334 8.33331 10.4 8.17776 10.4 7.99998C10.4 7.8222 10.3334 7.66665 10.2 7.53331L8.45004 5.78331C8.32782 5.66109 8.17515 5.60265 7.99204 5.60798C7.80848 5.61376 7.6556 5.67776 7.53337 5.79998C7.41115 5.9222 7.35004 6.07776 7.35004 6.26665C7.35004 6.45553 7.41115 6.61109 7.53337 6.73331L8.13337 7.33331H5.98337C5.79449 7.33331 5.63893 7.39709 5.51671 7.52465C5.39448 7.65265 5.33337 7.81109 5.33337 7.99998C5.33337 8.18887 5.39737 8.34709 5.52537 8.47465C5.65293 8.60265 5.81115 8.66665 6.00004 8.66665H8.13337L7.51671 9.28331C7.39448 9.40553 7.33604 9.55842 7.34137 9.74198C7.34715 9.92509 7.41115 10.0778 7.53337 10.2C7.6556 10.3222 7.81115 10.3833 8.00004 10.3833C8.18893 10.3833 8.34448 10.3222 8.46671 10.2ZM8.00004 14.6666C7.07782 14.6666 6.21115 14.4915 5.40004 14.1413C4.58893 13.7915 3.88337 13.3166 3.28337 12.7166C2.68337 12.1166 2.20849 11.4111 1.85871 10.6C1.50849 9.78887 1.33337 8.9222 1.33337 7.99998C1.33337 7.07776 1.50849 6.21109 1.85871 5.39998C2.20849 4.58887 2.68337 3.88331 3.28337 3.28331C3.88337 2.68331 4.58893 2.2082 5.40004 1.85798C6.21115 1.5082 7.07782 1.33331 8.00004 1.33331C8.92226 1.33331 9.78893 1.5082 10.6 1.85798C11.4112 2.2082 12.1167 2.68331 12.7167 3.28331C13.3167 3.88331 13.7916 4.58887 14.1414 5.39998C14.4916 6.21109 14.6667 7.07776 14.6667 7.99998C14.6667 8.9222 14.4916 9.78887 14.1414 10.6C13.7916 11.4111 13.3167 12.1166 12.7167 12.7166C12.1167 13.3166 11.4112 13.7915 10.6 14.1413C9.78893 14.4915 8.92226 14.6666 8.00004 14.6666ZM8.00004 13.3333C9.47782 13.3333 10.7363 12.814 11.7754 11.7753C12.814 10.7362 13.3334 9.47776 13.3334 7.99998C13.3334 6.5222 12.814 5.26376 11.7754 4.22465C10.7363 3.18598 9.47782 2.66665 8.00004 2.66665C6.52226 2.66665 5.26404 3.18598 4.22537 4.22465C3.18626 5.26376 2.66671 6.5222 2.66671 7.99998C2.66671 9.47776 3.18626 10.7362 4.22537 11.7753C5.26404 12.814 6.52226 13.3333 8.00004 13.3333Z" fill="white"/>
</svg>
