<svg width="107" height="107" viewBox="0 0 107 107" fill="none" xmlns="http://www.w3.org/2000/svg">
<rect width="107" height="107" fill="white"/>
<path d="M104.497 57.4686C104.233 56.9304 103.952 56.4464 103.643 56.0156C103.32 55.5837 102.981 55.2061 102.631 54.8785C101.929 54.2233 101.179 53.7723 100.406 53.5C100.542 54.7169 100.827 55.9199 101.102 57.0846C101.244 57.6664 101.449 58.244 101.62 58.8046C101.799 59.3662 102.008 59.9161 102.246 60.4522C103.154 62.587 104.347 64.1975 105.719 65.1409C105.975 62.3488 105.578 59.6194 104.5 57.4686H104.497Z" fill="#E01B1B"/>
<path d="M96.0034 56.8155C96.3373 56.4092 96.6923 56.0337 97.0484 55.6901C97.3908 55.3455 97.7469 55.0328 98.1126 54.7541C98.8451 54.1967 99.6169 53.7723 100.405 53.5C100.192 54.7169 99.9156 55.8933 99.4181 56.9602C99.1746 57.4941 98.9397 58.0047 98.6197 58.478C98.3082 58.9524 97.9744 59.3939 97.6172 59.7981C97.2696 60.2033 96.8752 60.5511 96.4808 60.85C96.0874 61.1489 95.6898 61.3989 95.2891 61.6021C94.4981 62.0105 93.6498 62.2211 92.8386 62.2807C93.6242 60.3171 94.6841 58.4461 96.0034 56.8144V56.8155Z" fill="#E01B1B"/>
<path d="M101.682 70.7359C101.563 70.1445 101.409 69.5999 101.224 69.1021C101.04 68.6043 100.827 68.1544 100.563 67.7427C100.049 66.9226 99.4382 66.2886 98.76 65.8228C98.4867 68.2714 98.3709 70.7019 98.7174 73.0196C98.7919 73.594 98.896 74.1418 99.0279 74.6609C99.1618 75.181 99.3202 75.6724 99.4861 76.1234C99.8294 77.0308 100.281 77.819 100.829 78.4593C101.845 75.849 102.113 73.0792 101.683 70.7348L101.682 70.7359Z" fill="#E01B1B"/>
<path d="M93.6614 67.866C94.0845 67.5608 94.5151 67.2885 94.9477 67.0513C95.3826 66.8141 95.8206 66.6109 96.2373 66.4343C97.0814 66.0865 97.9329 65.8791 98.76 65.8217C97.8128 68.0926 96.2341 69.9902 94.4279 71.1645C93.9633 71.4538 93.5052 71.6911 93.0533 71.8793C92.6037 72.0676 92.1593 72.2059 91.7064 72.2888C90.8102 72.4612 89.9597 72.4526 89.1646 72.2963C90.4732 70.6221 91.919 69.0701 93.6636 67.865L93.6614 67.866Z" fill="#E01B1B"/>
<path d="M95.4569 82.7822C95.4825 82.4844 95.4952 82.1961 95.4974 81.9164C95.4963 81.6345 95.475 81.3558 95.4485 81.0899C95.3932 80.5559 95.2975 80.0602 95.1646 79.6018C94.9063 78.6891 94.4725 77.9084 93.9346 77.2755C93.7167 77.8542 93.4785 78.4147 93.2776 78.9912C93.0756 79.5667 92.9077 80.156 92.7269 80.725C92.5558 81.3005 92.4133 81.8834 92.3006 82.4716C92.1688 83.0449 92.0657 83.6225 91.9955 84.2033C91.9275 84.7851 91.8913 85.3467 91.8701 85.8722C91.8541 86.4019 91.8733 86.9125 91.9254 87.4007C91.9764 87.8868 92.0668 88.357 92.1784 88.7899C92.289 89.2217 92.4335 89.6291 92.6121 90.0078C93.0352 89.4536 93.3893 88.8516 93.7209 88.257C94.0516 87.6613 94.3535 87.0646 94.582 86.4413C94.8191 85.8254 95.019 85.2138 95.1742 84.6075C95.3113 83.9884 95.4059 83.3778 95.4559 82.7832L95.4569 82.7822Z" fill="#E01B1B"/>
<path d="M88.4746 77.9009C88.7244 77.8126 88.9721 77.7329 89.2198 77.6605C89.4633 77.5861 89.6982 77.5159 89.9364 77.4563C90.4094 77.3361 90.8783 77.251 91.3386 77.1989C92.2656 77.1 93.1299 77.117 93.9357 77.2755C93.5679 77.7658 93.1363 78.2051 92.7047 78.6221C92.2699 79.038 91.8308 79.4316 91.3428 79.7624C90.8644 80.0996 90.3776 80.4027 89.8864 80.6654C89.3761 80.9143 88.8605 81.1218 88.3449 81.2866C87.8325 81.4536 87.3339 81.5674 86.8353 81.6196C86.3431 81.6759 85.8722 81.6887 85.4236 81.6589C84.9728 81.6281 84.5497 81.5621 84.1383 81.4483C83.7247 81.3334 83.3356 81.1834 82.9689 81.0016C83.4037 80.691 83.8162 80.3644 84.2584 80.0719C84.6996 79.7783 85.1631 79.5103 85.6096 79.2369C86.0635 78.971 86.5377 78.7306 87.0235 78.5126C87.4913 78.2817 87.975 78.0764 88.4736 77.8988L88.4746 77.9009Z" fill="#E01B1B"/>
<path d="M86.307 92.7764C86.5026 92.2062 86.645 91.6584 86.7375 91.1351C86.8311 90.6139 86.8736 90.1161 86.8555 89.6279C86.8279 88.6621 86.6227 87.8047 86.274 87.0591C84.7953 89.029 83.4696 91.0692 82.5946 93.2412C81.7112 95.3962 81.371 97.3385 81.6719 99.0042C83.8661 97.264 85.4916 95.0122 86.307 92.7753V92.7764Z" fill="#E01B1B"/>
<path d="M80.8405 86.239C81.3603 86.189 81.8685 86.1731 82.3639 86.1869C82.8593 86.2028 83.3398 86.2486 83.7874 86.3082C84.692 86.4369 85.5308 86.69 86.2729 87.0602C84.304 88.5344 81.9854 89.3758 79.8295 89.4726C77.6565 89.5598 75.9258 88.861 74.715 87.7909C76.6902 87.0059 78.7228 86.3943 80.8405 86.239Z" fill="#E01B1B"/>
<path d="M74.8511 100.02C75.5474 99.0574 75.9694 98.0469 76.2065 97.1268C76.3234 96.663 76.3893 96.2131 76.4085 95.7791C76.4234 95.3356 76.3915 94.908 76.3202 94.4995C75.8418 94.8909 75.3475 95.2452 74.8861 95.6472C74.6544 95.8451 74.4258 96.0482 74.2036 96.2567C73.9804 96.4641 73.7518 96.6567 73.5349 96.8641C73.097 97.2747 72.6813 97.7097 72.2848 98.1554C71.8808 98.583 71.5002 99.0297 71.1462 99.4956C70.9697 99.7286 70.8017 99.9615 70.6444 100.196C70.4849 100.424 70.3329 100.644 70.1926 100.871C69.9109 101.32 69.6674 101.77 69.4654 102.218C69.2624 102.663 69.1029 103.113 68.9796 103.545C68.8563 103.974 68.7744 104.398 68.7351 104.815C69.3825 104.553 69.9927 104.211 70.5806 103.866C71.1685 103.518 71.732 103.16 72.2444 102.737C72.761 102.325 73.2426 101.896 73.6838 101.453C74.1164 100.991 74.5056 100.508 74.85 100.02H74.8511Z" fill="#E01B1B"/>
<path d="M71.2918 92.2767C72.3379 92.4905 73.267 92.7383 74.1164 93.1191C74.5395 93.3063 74.9382 93.518 75.3081 93.752C75.6739 93.9775 76.0119 94.2274 76.3202 94.4997C75.7568 94.7391 75.1583 94.8912 74.5768 95.038C74.2844 95.1082 73.9931 95.1709 73.704 95.2263C73.4137 95.2794 73.1161 95.305 72.8258 95.3326C72.2422 95.3815 71.6713 95.4017 71.1132 95.3752C70.5466 95.3305 69.998 95.2507 69.4707 95.1326C69.2071 95.0731 68.9541 95.0061 68.7106 94.9305C68.4651 94.8497 68.228 94.7529 68.0015 94.654C67.5487 94.454 67.1373 94.2253 66.7652 93.9722C66.392 93.7179 66.0614 93.4456 65.7648 93.1404C65.4671 92.8319 65.2077 92.5043 64.9845 92.1618C65.516 92.116 66.0348 92.0416 66.5642 92.015C67.0915 91.9841 67.6284 91.9916 68.1493 91.981C68.6745 91.981 69.2028 92.0118 69.7322 92.0724C70.2532 92.1139 70.773 92.1777 71.2918 92.2777V92.2767Z" fill="#E01B1B"/>
<path d="M61.8888 103.996C63.7344 102.463 64.6082 100.689 64.7634 99.0596C64.1915 99.2808 63.6291 99.5276 63.0795 99.7988C62.5245 100.047 61.9803 100.309 61.4519 100.603C61.1872 100.746 60.9278 100.908 60.6684 101.052C60.409 101.197 60.1539 101.348 59.904 101.505C59.4023 101.818 58.9196 102.163 58.455 102.52C57.5248 103.2 56.7435 103.938 56.1194 104.702C55.4943 105.438 55.0276 106.212 54.7353 107C55.0808 106.948 55.4231 106.888 55.7612 106.822C55.9302 106.788 56.0982 106.755 56.2651 106.717C56.4309 106.671 56.5968 106.626 56.7615 106.58C57.4185 106.39 58.0543 106.173 58.6613 105.931C59.2683 105.68 59.8435 105.369 60.3846 105.054C60.9257 104.735 61.4306 104.397 61.8888 103.996Z" fill="#E01B1B"/>
<path d="M60.5015 95.5866C62.397 96.5109 63.8566 97.6608 64.7645 99.0585C64.1511 99.1106 63.5409 99.135 62.9434 99.1287C62.3407 99.0999 61.7474 99.0308 61.1744 98.9372C60.8874 98.8861 60.6068 98.8415 60.3282 98.7649C60.0497 98.6883 59.7765 98.6043 59.5096 98.5128C58.976 98.3277 58.4689 98.1192 57.9916 97.8671C57.0326 97.33 56.2693 96.712 55.6836 96.0365C55.0968 95.3313 54.6885 94.5793 54.4366 93.8049C54.6992 93.8422 54.9617 93.8858 55.2243 93.9368C55.3551 93.9634 55.4858 93.9911 55.6166 94.0177C55.7474 94.0411 55.8771 94.0645 56.0057 94.0879C56.5234 94.1879 57.038 94.3176 57.5472 94.4751C58.0553 94.624 58.555 94.7686 59.0493 94.9612C59.5437 95.1505 60.0316 95.3728 60.5026 95.5866H60.5015Z" fill="#E01B1B"/>
<path d="M48.3525 104.434C49.4422 103.91 50.315 103.299 50.9847 102.628C51.6555 101.927 52.1243 101.177 52.4135 100.404C52.1084 100.44 51.8043 100.483 51.5014 100.532C51.3493 100.557 51.1984 100.584 51.0474 100.609C50.8965 100.632 50.7455 100.654 50.5967 100.675C49.9971 100.771 49.4017 100.893 48.8149 101.043C48.2292 101.185 47.653 101.321 47.0863 101.504C46.5197 101.684 45.9627 101.895 45.4247 102.099C43.2656 102.978 41.6391 104.087 40.6578 105.467C41.3552 105.541 42.0484 105.583 42.7277 105.594C43.4123 105.581 44.0852 105.528 44.7359 105.447C45.0622 105.402 45.3811 105.364 45.6979 105.293C46.0137 105.221 46.3241 105.144 46.6271 105.057C47.2331 104.881 47.8103 104.681 48.3536 104.435L48.3525 104.434Z" fill="#E01B1B"/>
<path d="M49.2009 95.9536C49.9992 96.6216 50.6732 97.3513 51.2122 98.1118C51.7533 98.8436 52.1594 99.6159 52.4135 100.403C52.1105 100.352 51.8097 100.293 51.5131 100.23C51.3653 100.197 51.2175 100.165 51.0708 100.126C50.9252 100.082 50.7806 100.037 50.636 99.9924C50.062 99.8073 49.506 99.5978 48.9765 99.3627C48.4482 99.1191 47.9485 98.8181 47.4797 98.5118C47.0119 98.2022 46.575 97.8736 46.1838 97.4843C44.6019 95.9951 43.8939 94.2634 43.8131 92.6509C44.3011 92.8519 44.7805 93.0795 45.2483 93.3338C45.7214 93.5646 46.1859 93.8135 46.6367 94.0932C46.8631 94.2294 47.0832 94.3857 47.3054 94.524C47.5265 94.6634 47.7444 94.8091 47.9592 94.9612C48.3876 95.2644 48.8011 95.6015 49.1987 95.9515L49.2009 95.9536Z" fill="#E01B1B"/>
<path d="M35.1639 101.292C35.4583 101.246 35.7422 101.189 36.0143 101.124C36.2875 101.054 36.5533 100.967 36.8053 100.878C37.3102 100.696 37.7684 100.483 38.1809 100.244C38.5944 100.002 38.9602 99.7415 39.2876 99.4447C39.615 99.1458 39.8989 98.8246 40.1402 98.4885C39.5257 98.4183 38.9261 98.3183 38.318 98.2641C37.711 98.2056 37.0987 98.1864 36.5033 98.1471C35.9037 98.1194 35.3042 98.1215 34.7067 98.1524C34.1178 98.1651 33.5331 98.2002 32.9537 98.2715C31.7864 98.43 30.7595 98.6278 29.8335 98.9693C29.3732 99.1363 28.9416 99.3309 28.544 99.55C28.1517 99.7607 27.7913 99.9979 27.466 100.262C28.1039 100.542 28.7779 100.735 29.4327 100.92C29.7623 101.009 30.0897 101.09 30.4161 101.163C30.7424 101.234 31.0773 101.276 31.4026 101.321C32.0575 101.403 32.6985 101.454 33.3258 101.456C33.9604 101.44 34.5749 101.386 35.1649 101.292H35.1639Z" fill="#E01B1B"/>
<path d="M38.2181 93.3361C38.3637 93.5573 38.5008 93.7796 38.6295 94.002C38.7602 94.22 38.8846 94.4306 38.9994 94.6476C39.2301 95.0784 39.4257 95.5124 39.5873 95.9464C39.7489 96.3782 39.8743 96.8175 39.9679 97.2398C40.0625 97.6589 40.1199 98.0758 40.1401 98.4875C39.5756 98.2503 39.0462 97.9333 38.537 97.6163C38.0288 97.2951 37.5419 96.9643 37.1029 96.5697C36.6606 96.1857 36.2503 95.7857 35.8771 95.372C35.5125 94.9391 35.1883 94.4849 34.9044 94.0243C34.3303 93.118 34.005 92.1565 33.8435 91.2768C33.7648 90.8332 33.7307 90.4003 33.7382 89.9812C33.7509 89.5526 33.8041 89.1377 33.8924 88.7378C34.2963 89.0877 34.7152 89.4026 35.1021 89.7664C35.2977 89.9451 35.488 90.1302 35.6741 90.3206C35.8612 90.5099 36.0526 90.6854 36.2343 90.8769C36.6011 91.2534 36.9466 91.6587 37.2751 92.0756C37.611 92.4745 37.9257 92.8947 38.217 93.3372L38.2181 93.3361Z" fill="#E01B1B"/>
<path d="M23.2689 94.7932C25.6566 95.0368 27.5319 94.4273 28.8076 93.3977C26.5421 92.4329 24.248 91.6266 21.9283 91.3001C21.3575 91.2075 20.8036 91.1522 20.2688 91.1299C19.733 91.1097 19.2164 91.1224 18.738 91.1533C17.7706 91.2246 16.8882 91.4341 16.1185 91.7777C18.3308 93.4902 20.9003 94.5379 23.2699 94.7911L23.2689 94.7932Z" fill="#E01B1B"/>
<path d="M28.3069 87.9207C28.9756 89.9194 29.1712 91.7723 28.8066 93.3976C26.9036 91.8383 25.5386 89.7801 24.9252 87.7144C24.7796 87.1868 24.6839 86.6784 24.6318 86.1912C24.5797 85.7061 24.5723 85.2403 24.6212 84.7818C24.7105 83.8734 24.9603 83.0597 25.3356 82.3396C26.5709 84.0713 27.6467 85.9061 28.3069 87.9207Z" fill="#E01B1B"/>
<path d="M13.5002 85.403C14.0541 85.6211 14.5909 85.7817 15.1246 85.8753C15.6519 85.9742 16.1547 86.0221 16.631 86.0242C17.1094 86.0253 17.5569 85.9859 17.9896 85.8955C18.4234 85.804 18.8295 85.6711 19.209 85.5041C18.7157 85.1318 18.248 84.7425 17.7515 84.3872C17.2561 84.0309 16.7416 83.7011 16.2462 83.3671C15.7423 83.0406 15.2224 82.7396 14.693 82.463C14.1816 82.1737 13.6565 81.911 13.1196 81.6801C12.8517 81.5642 12.5849 81.4578 12.3202 81.3621C12.0597 81.2632 11.8088 81.1685 11.5558 81.0866C11.0519 80.9207 10.5576 80.7941 10.0749 80.7058C9.10219 80.5346 8.20706 80.4984 7.38104 80.6239C7.79246 81.1877 8.26767 81.6993 8.745 82.1865C9.22445 82.6726 9.70816 83.1331 10.2408 83.5278C10.7638 83.9298 11.2954 84.2947 11.8311 84.6159C12.385 84.9233 12.9442 85.186 13.5002 85.403Z" fill="#E01B1B"/>
<path d="M20.1583 80.0867C20.1849 80.6175 20.1828 81.1323 20.1689 81.6153C20.1498 82.1035 20.0999 82.5779 20.0191 83.0331C19.9404 83.4884 19.8256 83.9298 19.6927 84.3404C19.5609 84.7499 19.3993 85.1392 19.2079 85.5041C18.8422 85.0127 18.5456 84.4723 18.2671 83.9405C17.9896 83.4065 17.7398 82.8725 17.5612 82.3109C17.373 81.7567 17.2199 81.2047 17.1083 80.6569C17.0158 80.0963 16.9605 79.5432 16.9488 79.0018C16.9425 78.7316 16.9478 78.4689 16.9616 78.2147C16.9797 77.9573 17.0169 77.703 17.0583 77.4595C17.1434 76.9712 17.2656 76.516 17.4208 76.0937C17.7238 75.2534 18.1895 74.5258 18.7476 73.9259C18.922 74.4301 19.1165 74.9194 19.2717 75.4257C19.429 75.9309 19.5524 76.4532 19.6874 76.9585C19.8128 77.4701 19.9117 77.9913 19.9808 78.5199C20.069 79.0348 20.1296 79.557 20.1583 80.0857V80.0867Z" fill="#E01B1B"/>
<path d="M6.51784 73.7823C7.00898 74.1333 7.49268 74.4258 7.96681 74.663C8.43883 74.9013 8.90553 75.0832 9.37754 75.2055C10.3109 75.4544 11.1901 75.5012 12.0044 75.3789C10.5352 73.4015 8.96188 71.5465 7.12805 70.0881C6.68261 69.7191 6.23291 69.3893 5.78216 69.1C5.33035 68.8107 4.87749 68.5607 4.44907 68.3437C3.57946 67.914 2.71302 67.6459 1.87531 67.5513C2.91182 70.1552 4.60534 72.3623 6.51784 73.7834V73.7823Z" fill="#E01B1B"/>
<path d="M14.3379 70.4019C14.2369 70.9146 14.1082 71.4071 13.953 71.8762C13.7957 72.3474 13.616 72.7942 13.4321 73.2069C13.0515 74.0376 12.571 74.7705 12.0054 75.3778C11.1497 73.0707 11.0093 70.6051 11.5281 68.5128C11.6706 67.9842 11.8439 67.497 12.0459 67.0524C12.2468 66.6078 12.4753 66.2036 12.7507 65.8334C13.2886 65.0963 13.9169 64.5219 14.6058 64.0922C14.7886 66.2078 14.7907 68.3288 14.3389 70.4009L14.3379 70.4019Z" fill="#E01B1B"/>
<path d="M2.85228 60.7213C3.20948 61.1925 3.61345 61.601 4.01636 61.9541C4.4182 62.3073 4.82536 62.6051 5.23465 62.8497C6.04154 63.3422 6.90369 63.6135 7.72227 63.7102C6.86117 61.4106 5.75983 59.2151 4.42034 57.3196C4.08121 56.8474 3.72293 56.4123 3.36467 56.0145C3.01916 55.6167 2.66198 55.2561 2.29416 54.9349C1.55956 54.2935 0.786686 53.8084 0 53.4989C0.212618 54.8849 0.495395 56.2241 1.00461 57.4473C1.25338 58.0589 1.49576 58.6461 1.82319 59.1917C2.14212 59.7385 2.48551 60.2501 2.85228 60.7202V60.7213Z" fill="#E01B1B"/>
<path d="M11.2868 59.529C10.3406 61.3989 9.10957 62.8434 7.72224 63.7114C7.54045 61.2553 7.98163 58.8514 9.07874 56.9634C9.34877 56.4911 9.63263 56.0678 9.94518 55.6912C10.2705 55.3136 10.6107 54.9828 10.9625 54.6977C11.6663 54.1265 12.4169 53.7351 13.1897 53.5011C13.0537 54.5488 12.7624 55.5891 12.4753 56.5975C12.3265 57.1017 12.116 57.6037 11.9374 58.0909C11.7503 58.5791 11.5324 59.0599 11.2857 59.53L11.2868 59.529Z" fill="#E01B1B"/>
<path d="M2.50252 49.5315C2.76723 50.0697 3.04789 50.5537 3.35725 50.9845C3.68043 51.4163 4.01849 51.7939 4.36931 52.1215C5.07095 52.7768 5.82149 53.2278 6.59435 53.5001C6.45828 52.2832 6.17337 51.0802 5.89803 49.9155C5.75557 49.3336 5.55145 48.756 5.38029 48.1955C5.20063 47.6339 4.99227 47.0839 4.75414 46.5478C3.84626 44.413 2.65348 42.8026 1.28103 41.8591C1.02483 44.6513 1.42242 47.3807 2.50039 49.5315H2.50252Z" fill="#E01B1B"/>
<path d="M10.9966 50.1846C10.6628 50.5909 10.3077 50.9664 9.95155 51.3099C9.60924 51.6546 9.25313 51.9673 8.88743 52.246C8.15496 52.8033 7.38315 53.2278 6.5954 53.5001C6.80802 52.2832 7.08442 51.1068 7.58195 50.0399C7.8254 49.5059 8.06034 48.9954 8.38033 48.522C8.69182 48.0476 9.02562 47.6062 9.38282 47.202C9.73045 46.7967 10.1248 46.4489 10.5193 46.15C10.9126 45.8511 11.3102 45.6012 11.711 45.398C12.5019 44.9895 13.3503 44.7789 14.1614 44.7194C13.3758 46.6829 12.3159 48.5539 10.9966 50.1856V50.1846Z" fill="#E01B1B"/>
<path d="M5.31754 36.2642C5.43661 36.8556 5.59183 37.4002 5.77574 37.898C5.95965 38.3958 6.17333 38.8457 6.43698 39.2574C6.95045 40.0775 7.56172 40.7114 8.23998 41.1773C8.51319 38.7287 8.62906 36.2982 8.28249 33.9804C8.20807 33.4061 8.1039 32.8583 7.97207 32.3392C7.83813 31.819 7.67972 31.3276 7.51388 30.8766C7.1705 29.9693 6.7187 29.1811 6.17121 28.5408C5.15489 31.151 4.88699 33.9198 5.31648 36.2652L5.31754 36.2642Z" fill="#E01B1B"/>
<path d="M13.3386 39.1338C12.9155 39.4391 12.485 39.7114 12.0523 39.9486C11.6175 40.1858 11.1795 40.389 10.7628 40.5645C9.91867 40.9123 9.0682 41.1197 8.24005 41.1772C9.18726 38.9062 10.766 37.0086 12.5721 35.8343C13.0367 35.545 13.4949 35.3078 13.9467 35.1195C14.3964 34.9312 14.8408 34.793 15.2936 34.71C16.1898 34.5377 17.0403 34.5462 17.8355 34.7025C16.5268 36.3768 15.081 37.9287 13.3365 39.1338H13.3386Z" fill="#E01B1B"/>
<path d="M11.543 24.2169C11.5175 24.5148 11.5047 24.803 11.5026 25.0828C11.5036 25.3646 11.5249 25.6433 11.5515 25.9092C11.6067 26.4432 11.7024 26.9389 11.8353 27.3973C12.0937 28.31 12.5274 29.0907 13.0653 29.7236C13.2832 29.145 13.5214 28.5844 13.7223 28.0079C13.9243 27.4324 14.0923 26.8432 14.273 26.2741C14.4441 25.6986 14.5866 25.1157 14.6993 24.5275C14.8311 23.9542 14.9342 23.3766 15.0044 22.7958C15.0724 22.214 15.1086 21.6524 15.1298 21.1269C15.1458 20.5972 15.1266 20.0866 15.0746 19.5984C15.0235 19.1123 14.9332 18.6422 14.8215 18.2093C14.711 17.7774 14.5664 17.37 14.3878 16.9913C13.9647 17.5455 13.6107 18.1476 13.279 18.7422C12.9484 19.3378 12.6465 19.9345 12.4179 20.5579C12.1808 21.1737 11.981 21.7853 11.8257 22.3916C11.6886 23.0107 11.594 23.6213 11.544 24.2159L11.543 24.2169Z" fill="#E01B1B"/>
<path d="M18.5254 29.0991C18.2756 29.1874 18.0279 29.2672 17.7802 29.3384C17.5368 29.4129 17.3018 29.4831 17.0637 29.5427C16.5906 29.6629 16.1218 29.748 15.6615 29.8001C14.7345 29.899 13.8702 29.882 13.0643 29.7235C13.4322 29.2331 13.8638 28.7938 14.2954 28.3769C14.7302 27.961 15.1693 27.5674 15.6572 27.2366C16.1356 26.8994 16.6225 26.5963 17.1136 26.3335C17.6239 26.0846 18.1395 25.8772 18.6551 25.7124C19.1675 25.5454 19.6661 25.4315 20.1647 25.3794C20.6569 25.322 21.1279 25.3103 21.5765 25.3401C22.0272 25.3709 22.4504 25.4369 22.8618 25.5507C23.2753 25.6655 23.6644 25.8155 24.0301 25.9974C23.5953 26.308 23.1828 26.6346 22.7406 26.9271C22.2994 27.2207 21.8359 27.4887 21.3894 27.7621C20.9355 28.028 20.4613 28.2684 19.9755 28.4864C19.5077 28.7173 19.024 28.9225 18.5244 29.1002L18.5254 29.0991Z" fill="#E01B1B"/>
<path d="M20.693 14.2235C20.4974 14.7936 20.355 15.3414 20.2625 15.8647C20.1689 16.3859 20.1264 16.8837 20.1445 17.372C20.1721 18.3378 20.3773 19.1951 20.726 19.9408C22.2047 17.9708 23.5304 15.9296 24.4053 13.7586C25.2888 11.6036 25.6289 9.66133 25.3291 7.99561C23.1349 9.73579 21.5095 11.9876 20.693 14.2245V14.2235Z" fill="#E01B1B"/>
<path d="M26.1595 20.7609C25.6396 20.8109 25.1304 20.8269 24.636 20.8131C24.1406 20.7971 23.6601 20.7514 23.2126 20.6918C22.3079 20.5631 21.4691 20.3099 20.7271 19.9398C22.6959 18.4655 25.0145 17.6241 27.1704 17.5274C29.3434 17.4401 31.0741 18.139 32.285 19.209C30.3097 19.994 28.2771 20.6056 26.1595 20.7609Z" fill="#E01B1B"/>
<path d="M32.1489 6.97989C31.4526 7.94253 31.0305 8.95302 30.7934 9.87311C30.6765 10.3369 30.6106 10.7868 30.5915 11.2208C30.5766 11.6643 30.6085 12.0919 30.6797 12.5004C31.1581 12.109 31.6524 11.7537 32.1138 11.3527C32.3456 11.1548 32.5731 10.9517 32.7963 10.7432C33.0196 10.5358 33.2481 10.3433 33.465 10.1358C33.903 9.72526 34.3187 9.29021 34.7152 8.84453C35.1192 8.41693 35.4998 7.97018 35.8538 7.50429C36.0302 7.27134 36.1982 7.03839 36.3555 6.80438C36.515 6.57569 36.667 6.35551 36.8074 6.12895C37.0891 5.68008 37.3325 5.23014 37.5345 4.78233C37.7376 4.33664 37.897 3.88671 38.0203 3.45485C38.1437 3.02619 38.2255 2.60178 38.2648 2.18481C37.6174 2.44648 37.0072 2.78899 36.4193 3.13362C35.8314 3.48251 35.268 3.8399 34.7556 4.26325C34.2389 4.67489 33.7573 5.10356 33.3162 5.54711C32.8835 6.00875 32.4944 6.49166 32.15 6.97989H32.1489Z" fill="#E01B1B"/>
<path d="M35.7081 14.7234C34.6621 14.5096 33.7329 14.2618 32.8835 13.881C32.4604 13.6938 32.0617 13.4821 31.6918 13.2481C31.3261 13.0226 30.988 12.7727 30.6797 12.5004C31.2432 12.261 31.8417 12.1089 32.4232 11.9621C32.7156 11.8919 33.0068 11.8292 33.296 11.7739C33.5862 11.7207 33.8839 11.6951 34.1741 11.6675C34.7577 11.6186 35.3286 11.5984 35.8868 11.6249C36.4534 11.6696 37.0019 11.7494 37.5292 11.8675C37.7929 11.927 38.0459 11.994 38.2893 12.0696C38.5349 12.1504 38.772 12.2472 38.9984 12.3461C39.4513 12.5461 39.8627 12.7748 40.2348 13.0279C40.6069 13.2822 40.9385 13.5545 41.2351 13.8597C41.5328 14.1682 41.7922 14.4958 42.0155 14.8383C41.4839 14.8841 40.9651 14.9585 40.4357 14.9851C39.9084 15.016 39.3716 15.0085 38.8506 15.0192C38.3255 15.0192 37.7971 14.9883 37.2677 14.9277C36.7468 14.8862 36.2269 14.8224 35.7071 14.7224L35.7081 14.7234Z" fill="#E01B1B"/>
<path d="M45.1112 3.00384C43.2656 4.53661 42.3918 6.31083 42.2366 7.94039C42.8085 7.71914 43.3709 7.47237 43.9205 7.20113C44.4754 6.95329 45.0197 6.69056 45.5481 6.39699C45.8128 6.25445 46.0722 6.09171 46.3316 5.94811C46.591 5.80345 46.8461 5.65241 47.096 5.49498C47.5977 5.18226 48.0814 4.83656 48.5449 4.48023C49.4751 3.79947 50.2565 3.06234 50.8805 2.29755C51.5056 1.56149 51.9723 0.788188 52.2647 0C51.9192 0.0521204 51.5769 0.111688 51.2388 0.177636C51.0698 0.211674 50.9018 0.244647 50.7349 0.28294C50.5691 0.328678 50.4032 0.374417 50.2385 0.420156C49.5815 0.609491 48.9457 0.826483 48.3387 1.069C47.7317 1.32003 47.1565 1.63063 46.6154 1.94548C46.0743 2.26458 45.5694 2.6039 45.1112 3.00384Z" fill="#E01B1B"/>
<path d="M46.4984 11.4133C44.603 10.489 43.1434 9.33911 42.2355 7.94144C42.8489 7.88932 43.4591 7.86485 44.0565 7.87123C44.6593 7.89995 45.2525 7.96909 45.8255 8.0627C46.1126 8.11375 46.3932 8.15843 46.6717 8.23501C46.9503 8.3116 47.2235 8.39563 47.4903 8.48711C48.024 8.67219 48.5311 8.88067 49.0084 9.13276C49.9673 9.66992 50.7306 10.2879 51.3164 10.9634C51.9032 11.6686 52.3114 12.4206 52.5634 13.195C52.3008 13.1577 52.0382 13.1141 51.7756 13.0631C51.6449 13.0365 51.5141 13.0099 51.3834 12.9822C51.2526 12.9588 51.1229 12.9354 50.9943 12.912C50.4765 12.812 49.962 12.6823 49.4528 12.5248C48.9446 12.3759 48.445 12.2313 47.9506 12.0387C47.4563 11.8494 46.9694 11.6271 46.4974 11.4133H46.4984Z" fill="#E01B1B"/>
<path d="M58.6475 2.56558C57.5578 3.08997 56.685 3.70052 56.0153 4.37171C55.3445 5.07267 54.8756 5.82257 54.5865 6.59587C54.8916 6.5597 55.1956 6.51715 55.4986 6.46822C55.6506 6.4427 55.8016 6.41611 55.9526 6.39058C56.1035 6.36824 56.2545 6.3459 56.4033 6.32463C57.0029 6.2289 57.5982 6.10657 58.1851 5.95659C58.7708 5.81512 59.347 5.67897 59.9136 5.49602C60.4803 5.31626 61.0373 5.10459 61.5752 4.90249C63.7344 4.02282 65.3609 2.91446 66.3421 1.5338C65.6448 1.46147 64.9516 1.41786 64.2723 1.40723C63.5877 1.41999 62.9147 1.47318 62.2641 1.55402C61.9377 1.59763 61.6188 1.63698 61.302 1.70825C60.9863 1.77845 60.6759 1.85716 60.3729 1.94438C59.7669 2.11989 59.1897 2.31987 58.6464 2.56558H58.6475Z" fill="#E01B1B"/>
<path d="M57.7991 11.0463C57.0008 10.3783 56.3268 9.64863 55.7878 8.88809C55.2467 8.15628 54.8406 7.38405 54.5865 6.59692C54.8895 6.64798 55.1903 6.70648 55.4869 6.7703C55.6347 6.80328 55.7825 6.83519 55.9292 6.87348C56.0748 6.91816 56.2194 6.96283 56.364 7.0075C56.938 7.19258 57.494 7.40213 58.0235 7.6372C58.5518 7.88079 59.0515 8.18181 59.5203 8.48815C59.988 8.79768 60.425 9.12636 60.8162 9.51567C62.3981 11.0048 63.1061 12.7365 63.1869 14.349C62.6989 14.148 62.2195 13.9204 61.7517 13.6662C61.2786 13.4353 60.8141 13.1864 60.3633 12.9067C60.1369 12.7705 59.9168 12.6142 59.6946 12.4759C59.4735 12.3366 59.2556 12.1908 59.0408 12.0387C58.6124 11.7356 58.1989 11.3984 57.8013 11.0484L57.7991 11.0463Z" fill="#E01B1B"/>
<path d="M71.8362 5.70767C71.5418 5.75447 71.2579 5.81084 70.9858 5.87573C70.7125 5.94593 70.4468 6.03209 70.1948 6.1225C69.6899 6.30439 69.2317 6.51713 68.8192 6.75646C68.4056 6.99791 68.0399 7.25851 67.7136 7.55528C67.3861 7.85418 67.1023 8.17435 66.861 8.51153C67.4754 8.58174 68.075 8.68172 68.6831 8.73597C69.2901 8.79447 69.9025 8.81362 70.4978 8.85297C71.0974 8.88063 71.697 8.8785 72.2944 8.84766C72.8834 8.83489 73.4681 8.79979 74.0475 8.72852C75.2147 8.57003 76.2417 8.37219 77.1676 8.03075C77.6279 7.86375 78.0596 7.6691 78.4572 7.44998C78.8494 7.23937 79.2098 7.00217 79.5351 6.73837C78.8973 6.45756 78.2233 6.26503 77.5684 6.07995C77.2388 5.9906 76.9114 5.90976 76.585 5.83743C76.2587 5.76617 75.9238 5.72362 75.5985 5.68001C74.9436 5.59811 74.3026 5.54705 73.6754 5.54492C73.0407 5.56088 72.4262 5.61513 71.8362 5.70873V5.70767Z" fill="#E01B1B"/>
<path d="M68.7819 13.6641C68.6363 13.4429 68.4991 13.2206 68.3705 12.9982C68.2397 12.7802 68.1154 12.5696 68.0006 12.3526C67.7699 11.9218 67.5743 11.4878 67.4127 11.0538C67.2511 10.622 67.1256 10.1827 67.0321 9.7604C66.9375 9.3413 66.8801 8.92434 66.8599 8.5127C67.4244 8.7499 67.9527 9.06687 68.463 9.38385C68.9712 9.70508 69.4581 10.0359 69.8971 10.4305C70.3394 10.8145 70.7497 11.2144 71.1229 11.6282C71.4875 12.0611 71.8117 12.5153 72.0956 12.9759C72.6696 13.8822 72.995 14.8437 73.1565 15.7234C73.2352 16.167 73.2692 16.5999 73.2618 17.019C73.249 17.4476 73.1959 17.8625 73.1076 18.2624C72.7037 17.9125 72.2848 17.5976 71.8979 17.2338C71.7023 17.0551 71.5119 16.87 71.3259 16.6796C71.1388 16.4903 70.9474 16.3148 70.7657 16.1233C70.3989 15.7468 70.0544 15.3415 69.7249 14.9246C69.3889 14.5257 69.0743 14.1055 68.783 13.663L68.7819 13.6641Z" fill="#E01B1B"/>
<path d="M83.7322 12.2068C81.3445 11.9632 79.4692 12.5727 78.1935 13.6024C80.4589 14.5671 82.7531 15.3734 85.0727 15.7C85.6436 15.7925 86.1975 15.8478 86.7322 15.8701C87.268 15.8903 87.7847 15.8765 88.2631 15.8457C89.2305 15.7744 90.1128 15.5649 90.8825 15.2213C88.6702 13.5088 86.1007 12.461 83.7311 12.2079L83.7322 12.2068Z" fill="#E01B1B"/>
<path d="M78.6931 19.0782C78.0244 17.0796 77.8288 15.2266 78.1935 13.6013C80.0964 15.1607 81.4614 17.2178 82.0748 19.2846C82.2204 19.8132 82.3161 20.3206 82.3682 20.8078C82.4203 21.2928 82.4277 21.7587 82.3788 22.2171C82.2895 23.1255 82.0397 23.9392 81.6644 24.6594C80.4291 22.9277 79.3533 21.0928 78.6931 19.0782Z" fill="#E01B1B"/>
<path d="M93.4998 21.5959C92.9459 21.3779 92.4091 21.2173 91.8754 21.1237C91.3481 21.0247 90.8453 20.9769 90.369 20.9748C89.8906 20.9737 89.4431 21.013 89.0104 21.1035C88.5766 21.1949 88.1705 21.3279 87.791 21.4949C88.2843 21.8672 88.752 22.2565 89.2485 22.6118C89.7439 22.9681 90.2584 23.2978 90.7538 23.6318C91.2577 23.9584 91.7776 24.2594 92.307 24.536C92.8184 24.8253 93.3435 25.088 93.8804 25.3188C94.1483 25.4348 94.4151 25.5401 94.6798 25.6369C94.9403 25.7358 95.1912 25.8305 95.4442 25.9124C95.9481 26.0783 96.4424 26.2049 96.9251 26.2932C97.8978 26.4644 98.7929 26.5006 99.619 26.3751C99.2075 25.8113 98.7323 25.2997 98.255 24.8125C97.7755 24.3264 97.2918 23.8658 96.7592 23.4712C96.2362 23.0691 95.7046 22.7043 95.1688 22.3831C94.615 22.0757 94.0558 21.8129 93.4998 21.5959Z" fill="#E01B1B"/>
<path d="M86.8417 26.9133C86.8151 26.3825 86.8172 25.8677 86.8311 25.3848C86.8502 24.8966 86.9001 24.4222 86.9809 23.9669C87.0596 23.5116 87.1744 23.0702 87.3073 22.6596C87.4391 22.2501 87.6007 21.8608 87.7921 21.496C88.1578 21.9874 88.4544 22.5277 88.7329 23.0596C89.0104 23.5936 89.2602 24.1275 89.4388 24.6891C89.627 25.2433 89.7801 25.7954 89.8917 26.3432C89.9842 26.9037 90.0395 27.4568 90.0512 27.9983C90.0575 28.2684 90.0522 28.5312 90.0384 28.7854C90.0203 29.0428 89.9831 29.297 89.9417 29.5406C89.8566 30.0288 89.7343 30.4841 89.5791 30.9064C89.2761 31.7467 88.8105 32.4742 88.2524 33.0741C88.078 32.57 87.8835 32.0807 87.7283 31.5744C87.571 31.0691 87.4477 30.5468 87.3126 30.0416C87.1872 29.53 87.0883 29.0088 87.0192 28.4801C86.931 27.9653 86.8704 27.443 86.8417 26.9144V26.9133Z" fill="#E01B1B"/>
<path d="M100.482 33.2177C99.991 32.8667 99.5074 32.5742 99.0332 32.337C98.5612 32.0987 98.0956 31.9169 97.6225 31.7945C96.6891 31.5456 95.8099 31.4988 94.9956 31.6211C96.4648 33.5985 98.0382 35.4536 99.872 36.9119C100.317 37.281 100.767 37.6107 101.218 37.9001C101.67 38.1894 102.123 38.4393 102.551 38.6563C103.421 39.0861 104.287 39.3541 105.125 39.4488C104.088 36.8449 102.395 34.6377 100.482 33.2167V33.2177Z" fill="#E01B1B"/>
<path d="M92.6621 36.5971C92.7631 36.0844 92.8917 35.5919 93.0469 35.1229C93.2043 34.6516 93.3839 34.2049 93.5679 33.7922C93.9484 32.9615 94.429 32.2286 94.9945 31.6212C95.8503 33.9283 95.9906 36.394 95.4719 38.4862C95.3294 39.0149 95.1561 39.502 94.9541 39.9467C94.7532 40.3913 94.5246 40.7955 94.2493 41.1656C93.7114 41.9028 93.0831 42.4772 92.3942 42.9069C92.2113 40.7912 92.2092 38.6702 92.661 36.5982L92.6621 36.5971Z" fill="#E01B1B"/>
<path d="M104.148 46.2776C103.791 45.8064 103.387 45.398 102.984 45.0448C102.582 44.6917 102.175 44.3939 101.765 44.1492C100.958 43.6567 100.096 43.3855 99.2777 43.2887C100.139 45.5884 101.24 47.7838 102.58 49.6782C102.919 50.1505 103.277 50.5856 103.635 50.9834C103.981 51.3812 104.338 51.7418 104.706 52.063C105.44 52.7044 106.213 53.1894 107 53.499C106.787 52.113 106.505 50.7738 105.995 49.5506C105.747 48.939 105.504 48.3518 105.177 47.8062C104.858 47.2594 104.514 46.7478 104.148 46.2776Z" fill="#E01B1B"/>
<path d="M95.7132 47.4711C96.6594 45.6011 97.8904 44.1567 99.2777 43.2887C99.4595 45.7447 99.0184 48.1487 97.9213 50.0367C97.6512 50.509 97.3674 50.9323 97.0548 51.3099C96.7295 51.6875 96.3893 52.0183 96.0374 52.3034C95.3337 52.8746 94.5831 53.266 93.8092 53.5C93.9453 52.4523 94.2376 51.412 94.5236 50.4037C94.6724 49.8995 94.8829 49.3974 95.0615 48.9103C95.2486 48.422 95.4666 47.9412 95.7132 47.4711Z" fill="#E01B1B"/>
<path d="M41.8 33.12V34.86H51.34V33.12H41.8ZM40.62 37.02V38.78H52.24V37.02H40.62ZM41 40.92V42.68H52.1V40.92H41ZM45.58 31.1V37.98H47.46V31.1H45.58ZM48.02 38.56V47.46C48.02 47.74 47.92 47.8 47.6 47.82C47.26 47.84 46.16 47.84 45.06 47.8C45.32 48.32 45.56 49.14 45.64 49.68C47.16 49.68 48.26 49.64 48.98 49.36C49.68 49.06 49.9 48.52 49.9 47.48V38.56H48.02ZM41.9 43.86C42.82 44.84 43.88 46.2 44.3 47.1L45.82 46.12C45.34 45.22 44.26 43.92 43.3 43L41.9 43.86ZM33.62 41.9L34.1 43.72C36.16 43.1 38.88 42.28 41.4 41.46L41.16 39.8C38.42 40.6 35.54 41.44 33.62 41.9ZM37.3 31.14V49.68H39.04V31.14H37.3ZM34.74 32.18C34.54 34.6 34.16 37.12 33.46 38.78C33.84 38.98 34.56 39.4 34.84 39.64C35.58 37.84 36.08 35.1 36.36 32.46L34.74 32.18ZM35.06 35.06L34.72 36.86H40.94V35.06H35.06ZM66.64 46.34C68.68 47.36 70.88 48.68 72.16 49.62L73.86 48.34C72.48 47.4 70.1 46.1 67.98 45.1L66.64 46.34ZM55.7 43.24V45.02H74.26V43.24H55.7ZM58.66 38.24V40H71.3V38.24H58.66ZM61.94 31.08V44.04H63.72V31.08H61.94ZM66.22 31.06V44.06H68.02V31.06H66.22ZM57.72 33.48V43.92H59.54V35.24H70.52V43.92H72.44V33.48H57.72ZM61.66 45.12C60.42 46.24 57.92 47.58 55.82 48.32C56.28 48.68 56.94 49.3 57.28 49.7C59.34 48.9 61.86 47.54 63.42 46.26L61.66 45.12ZM49.9969 77H58.4169V75.1H55.5369V62.28H53.7969C52.9369 62.8 51.9769 63.16 50.5769 63.4V64.86H53.2369V75.1H49.9969V77Z" fill="#E01B1B"/>
</svg>
