<svg width="276" height="42" viewBox="0 0 276 42" fill="none" xmlns="http://www.w3.org/2000/svg">
<g clip-path="url(#clip0_85_31)">
<path d="M46.1583 8H2V33.6774H46.1583V8Z" fill="#231815"/>
<path d="M47.4821 31.5396C47.4821 32.895 48.718 33.9996 50.2392 33.9996C51.7604 33.9996 53 32.895 53 31.5396C53 30.1843 51.7604 29.083 50.2392 29.083C48.718 29.083 47.4821 30.1843 47.4821 31.5396ZM47.8002 31.5396C47.8002 30.3407 48.8935 29.3632 50.2392 29.3632C51.5849 29.3632 52.6782 30.3407 52.6782 31.5396C52.6782 32.7386 51.5849 33.7128 50.2392 33.7128C48.8935 33.7128 47.8002 32.7354 47.8002 31.5396Z" fill="#231815"/>
<path d="M51.5812 33.1302H51.051L49.9796 31.6543H49.5079V33.1302H49.0837V29.8818H50.1149C50.4623 29.8818 50.7329 29.9568 50.934 30.1066C51.1351 30.2565 51.2338 30.465 51.2338 30.7322C51.2338 30.931 51.1607 31.1069 51.0144 31.26C50.8681 31.4132 50.6634 31.5174 50.4074 31.5728L51.5739 33.1302M49.5042 31.3252H50.0381C50.2611 31.3252 50.444 31.2698 50.5866 31.1623C50.7255 31.0515 50.795 30.9179 50.795 30.7518C50.795 30.3901 50.5464 30.2077 50.049 30.2077H49.5042V31.3219V31.3252Z" fill="#231815"/>
<path d="M13.0944 27.9167C10.6737 27.9167 7.66423 26.2681 7.66423 22.8633C7.66423 20.221 10.6006 18.1129 13.0944 16.8488C15.5883 18.1097 18.521 20.221 18.521 22.8633C18.521 26.2681 15.5152 27.9167 13.0944 27.9167ZM29.7324 22.8079C29.7324 20.1656 32.6687 18.0543 35.159 16.7934C37.6528 18.0543 40.5855 20.1656 40.5855 22.8079C40.5855 26.2094 37.5797 27.8613 35.159 27.8613C32.7382 27.8613 29.7324 26.2127 29.7324 22.8079ZM46.151 11.9941C41.6642 11.9941 37.6894 12.9911 34.9871 14.2423C32.2885 12.9911 28.5586 11.9941 24.0718 11.9941C19.5851 11.9941 15.8552 12.9911 13.1566 14.2423C10.4579 12.9911 6.48677 11.9941 2 11.9941V14.2423C4.65111 14.2423 7.869 14.6854 10.3958 15.6628C7.66789 17.2886 4.96924 19.7518 4.96924 22.8601C4.96924 26.9686 8.89654 30.1094 13.1566 30.1094C17.4166 30.1094 21.1538 26.9686 21.1538 22.8601C21.1538 19.7518 18.6453 17.2886 15.9174 15.6628C18.4442 14.6854 21.4207 14.2423 24.0755 14.2423C26.7303 14.2423 29.7068 14.6854 32.2299 15.6628C29.502 17.2886 26.9935 19.7518 26.9935 22.8601C26.9935 26.9686 30.7307 30.1094 34.9908 30.1094C39.2508 30.1094 43.1159 26.9686 43.1159 22.8601C43.1159 19.7518 40.4795 17.2886 37.7479 15.6628C40.2747 14.6854 43.4999 14.2423 46.151 14.2423V11.9941Z" fill="#EDEDED"/>
</g>
<path d="M70.6029 34C69.1217 34 67.8908 33.6875 66.9103 33.0625C65.9506 32.4375 65.2204 31.5729 64.7197 30.4688C64.2399 29.3646 64 28.0938 64 26.6562V15.4375C64 13.9583 64.2295 12.6667 64.6885 11.5625C65.1683 10.4375 65.888 9.5625 66.8477 8.9375C67.8282 8.3125 69.08 8 70.6029 8C72.1259 8 73.3672 8.3125 74.3268 8.9375C75.3074 9.5625 76.0271 10.4375 76.4861 11.5625C76.9659 12.6667 77.2058 13.9583 77.2058 15.4375V26.6562C77.2058 28.0938 76.9555 29.3646 76.4548 30.4688C75.9749 31.5729 75.2448 32.4375 74.2642 33.0625C73.3046 33.6875 72.0841 34 70.6029 34ZM70.6029 30.2812C71.2496 30.2812 71.7295 30.0833 72.0424 29.6875C72.3553 29.2917 72.564 28.8125 72.6683 28.25C72.7726 27.6875 72.8247 27.1354 72.8247 26.5937V15.5C72.8247 14.9167 72.7726 14.3437 72.6683 13.7812C72.5848 13.1979 72.3866 12.7083 72.0737 12.3125C71.7608 11.9167 71.2705 11.7188 70.6029 11.7188C69.9353 11.7188 69.4451 11.9167 69.1321 12.3125C68.8192 12.7083 68.6106 13.1979 68.5063 13.7812C68.4228 14.3437 68.3811 14.9167 68.3811 15.5V26.5937C68.3811 27.1354 68.4332 27.6875 68.5375 28.25C68.6627 28.8125 68.8818 29.2917 69.1947 29.6875C69.5076 30.0833 69.977 30.2812 70.6029 30.2812Z" fill="black"/>
<path d="M86.8185 33.625V13.0938C86.6934 13.1562 86.443 13.25 86.0675 13.375C85.7128 13.5 85.3164 13.625 84.8783 13.75C84.4402 13.8542 84.0334 13.9583 83.6579 14.0625C83.3032 14.1667 83.0529 14.25 82.9068 14.3125V11.0938C83.1989 10.9896 83.564 10.8438 84.0021 10.6563C84.4402 10.4688 84.8992 10.2604 85.379 10.0312C85.8797 9.78125 86.3387 9.51042 86.7559 9.21875C87.1941 8.92708 87.5487 8.625 87.8199 8.3125H91.137V33.625H86.8185Z" fill="black"/>
<path d="M98.7601 33.625V30.5625L105.019 20.9062C105.478 20.1979 105.905 19.5208 106.302 18.875C106.719 18.2292 107.053 17.5625 107.303 16.875C107.574 16.1667 107.71 15.3958 107.71 14.5625C107.71 13.625 107.543 12.9063 107.209 12.4063C106.876 11.9063 106.354 11.6563 105.645 11.6563C104.977 11.6563 104.456 11.8438 104.08 12.2187C103.705 12.5937 103.444 13.0833 103.298 13.6875C103.173 14.2917 103.11 14.9583 103.11 15.6875V16.75H98.854V15.625C98.854 14.125 99.0731 12.8125 99.5112 11.6875C99.9702 10.5417 100.69 9.64583 101.67 9C102.651 8.35417 103.934 8.03125 105.52 8.03125C107.689 8.03125 109.316 8.61458 110.401 9.78125C111.486 10.9479 112.029 12.5729 112.029 14.6562C112.029 15.6979 111.883 16.6458 111.59 17.5C111.298 18.3333 110.912 19.1354 110.433 19.9062C109.953 20.6771 109.431 21.4687 108.868 22.2812L103.673 30.1562H111.371V33.625H98.7601Z" fill="black"/>
<path d="M124.517 34C123.036 34 121.805 33.6875 120.824 33.0625C119.865 32.4375 119.134 31.5729 118.634 30.4688C118.154 29.3646 117.914 28.0938 117.914 26.6562V15.4375C117.914 13.9583 118.143 12.6667 118.602 11.5625C119.082 10.4375 119.802 9.5625 120.762 8.9375C121.742 8.3125 122.994 8 124.517 8C126.04 8 127.281 8.3125 128.241 8.9375C129.221 9.5625 129.941 10.4375 130.4 11.5625C130.88 12.6667 131.12 13.9583 131.12 15.4375V26.6562C131.12 28.0938 130.869 29.3646 130.369 30.4688C129.889 31.5729 129.159 32.4375 128.178 33.0625C127.218 33.6875 125.998 34 124.517 34ZM124.517 30.2812C125.164 30.2812 125.643 30.0833 125.956 29.6875C126.269 29.2917 126.478 28.8125 126.582 28.25C126.687 27.6875 126.739 27.1354 126.739 26.5937V15.5C126.739 14.9167 126.687 14.3437 126.582 13.7812C126.499 13.1979 126.301 12.7083 125.988 12.3125C125.675 11.9167 125.184 11.7188 124.517 11.7188C123.849 11.7188 123.359 11.9167 123.046 12.3125C122.733 12.7083 122.524 13.1979 122.42 13.7812C122.337 14.3437 122.295 14.9167 122.295 15.5V26.5937C122.295 27.1354 122.347 27.6875 122.451 28.25C122.577 28.8125 122.796 29.2917 123.109 29.6875C123.422 30.0833 123.891 30.2812 124.517 30.2812Z" fill="black"/>
<path d="M137.791 24.8438V21.9687H145.333V24.8438H137.791Z" fill="black"/>
<path d="M158.616 34C157.134 34 155.904 33.6875 154.923 33.0625C153.963 32.4375 153.233 31.5729 152.733 30.4688C152.253 29.3646 152.013 28.0938 152.013 26.6562V15.4375C152.013 13.9583 152.242 12.6667 152.701 11.5625C153.181 10.4375 153.901 9.5625 154.86 8.9375C155.841 8.3125 157.093 8 158.616 8C160.139 8 161.38 8.3125 162.34 8.9375C163.32 9.5625 164.04 10.4375 164.499 11.5625C164.979 12.6667 165.219 13.9583 165.219 15.4375V26.6562C165.219 28.0938 164.968 29.3646 164.468 30.4688C163.988 31.5729 163.258 32.4375 162.277 33.0625C161.317 33.6875 160.097 34 158.616 34ZM158.616 30.2812C159.262 30.2812 159.742 30.0833 160.055 29.6875C160.368 29.2917 160.577 28.8125 160.681 28.25C160.785 27.6875 160.837 27.1354 160.837 26.5937V15.5C160.837 14.9167 160.785 14.3437 160.681 13.7812C160.598 13.1979 160.399 12.7083 160.086 12.3125C159.774 11.9167 159.283 11.7188 158.616 11.7188C157.948 11.7188 157.458 11.9167 157.145 12.3125C156.832 12.7083 156.623 13.1979 156.519 13.7812C156.436 14.3437 156.394 14.9167 156.394 15.5V26.5937C156.394 27.1354 156.446 27.6875 156.55 28.25C156.675 28.8125 156.895 29.2917 157.207 29.6875C157.52 30.0833 157.99 30.2812 158.616 30.2812Z" fill="black"/>
<path d="M171.389 33.625V30.5625L177.648 20.9062C178.107 20.1979 178.534 19.5208 178.931 18.875C179.348 18.2292 179.682 17.5625 179.932 16.875C180.203 16.1667 180.339 15.3958 180.339 14.5625C180.339 13.625 180.172 12.9063 179.838 12.4063C179.504 11.9063 178.983 11.6563 178.274 11.6563C177.606 11.6563 177.084 11.8438 176.709 12.2187C176.333 12.5937 176.073 13.0833 175.927 13.6875C175.801 14.2917 175.739 14.9583 175.739 15.6875V16.75H171.483V15.625C171.483 14.125 171.702 12.8125 172.14 11.6875C172.599 10.5417 173.319 9.64583 174.299 9C175.28 8.35417 176.563 8.03125 178.148 8.03125C180.318 8.03125 181.945 8.61458 183.03 9.78125C184.115 10.9479 184.657 12.5729 184.657 14.6562C184.657 15.6979 184.511 16.6458 184.219 17.5C183.927 18.3333 183.541 19.1354 183.061 19.9062C182.582 20.6771 182.06 21.4687 181.497 22.2812L176.302 30.1562H184V33.625H171.389Z" fill="black"/>
<path d="M197.12 33.625V27.4062H189.547V23.7188L196.15 8.3125H201.188V23.9687H203.786V27.4062H201.188V33.625H197.12ZM193.177 23.9687H197.12V12.9688L193.177 23.9687Z" fill="black"/>
<path d="M209.228 24.8438V21.9687H216.77V24.8438H209.228Z" fill="black"/>
<path d="M230.053 34C228.571 34 227.341 33.6875 226.36 33.0625C225.4 32.4375 224.67 31.5729 224.17 30.4688C223.69 29.3646 223.45 28.0938 223.45 26.6562V15.4375C223.45 13.9583 223.679 12.6667 224.138 11.5625C224.618 10.4375 225.338 9.5625 226.297 8.9375C227.278 8.3125 228.53 8 230.053 8C231.576 8 232.817 8.3125 233.777 8.9375C234.757 9.5625 235.477 10.4375 235.936 11.5625C236.416 12.6667 236.656 13.9583 236.656 15.4375V26.6562C236.656 28.0938 236.405 29.3646 235.905 30.4688C235.425 31.5729 234.695 32.4375 233.714 33.0625C232.754 33.6875 231.534 34 230.053 34ZM230.053 30.2812C230.699 30.2812 231.179 30.0833 231.492 29.6875C231.805 29.2917 232.014 28.8125 232.118 28.25C232.222 27.6875 232.275 27.1354 232.275 26.5937V15.5C232.275 14.9167 232.222 14.3437 232.118 13.7812C232.035 13.1979 231.836 12.7083 231.523 12.3125C231.211 11.9167 230.72 11.7188 230.053 11.7188C229.385 11.7188 228.895 11.9167 228.582 12.3125C228.269 12.7083 228.06 13.1979 227.956 13.7812C227.873 14.3437 227.831 14.9167 227.831 15.5V26.5937C227.831 27.1354 227.883 27.6875 227.987 28.25C228.113 28.8125 228.332 29.2917 228.644 29.6875C228.957 30.0833 229.427 30.2812 230.053 30.2812Z" fill="black"/>
<path d="M243.832 33.625L248.87 11.625H242.017V8.3125H253.126V10.9688L248.025 33.625H243.832Z" fill="black"/>
<path d="M265.396 33.9688C263.789 33.9688 262.496 33.6458 261.515 33C260.535 32.3542 259.836 31.4583 259.419 30.3125C259.001 29.1458 258.793 27.8021 258.793 26.2812C258.793 25.5521 258.855 24.8854 258.981 24.2812C259.127 23.6562 259.325 23.0937 259.575 22.5938C259.846 22.0938 260.17 21.6562 260.545 21.2812C260.921 20.8854 261.348 20.5625 261.828 20.3125C261.077 19.7917 260.441 19.0833 259.919 18.1875C259.419 17.2708 259.158 16.1146 259.137 14.7187C259.137 13.3438 259.356 12.1563 259.794 11.1562C260.253 10.1354 260.952 9.36458 261.891 8.84375C262.83 8.30208 263.998 8.03125 265.396 8.03125C266.814 8.03125 267.983 8.30208 268.901 8.84375C269.818 9.38542 270.497 10.1563 270.935 11.1562C271.394 12.1563 271.613 13.3438 271.592 14.7187C271.571 16.1354 271.31 17.2917 270.809 18.1875C270.33 19.0833 269.714 19.7917 268.963 20.3125C269.443 20.5625 269.871 20.8854 270.246 21.2812C270.622 21.6562 270.935 22.0938 271.185 22.5938C271.456 23.0937 271.654 23.6562 271.78 24.2812C271.926 24.8854 271.999 25.5521 271.999 26.2812C272.019 27.8021 271.811 29.1458 271.373 30.3125C270.955 31.4583 270.257 32.3542 269.276 33C268.316 33.6458 267.023 33.9688 265.396 33.9688ZM265.396 30.6875C266.084 30.6875 266.595 30.4792 266.929 30.0625C267.284 29.6458 267.513 29.125 267.618 28.5C267.722 27.8542 267.774 27.1979 267.774 26.5312C267.795 25.8229 267.743 25.1458 267.618 24.5C267.492 23.8333 267.252 23.2917 266.898 22.875C266.564 22.4583 266.063 22.25 265.396 22.25C264.749 22.25 264.248 22.4583 263.894 22.875C263.56 23.2917 263.32 23.8229 263.174 24.4687C263.049 25.1146 262.986 25.8021 262.986 26.5312C262.986 27.1979 263.038 27.8542 263.143 28.5C263.268 29.1458 263.508 29.6771 263.862 30.0937C264.217 30.4896 264.728 30.6875 265.396 30.6875ZM265.396 18.5937C265.917 18.5729 266.324 18.3958 266.616 18.0625C266.929 17.7083 267.148 17.2292 267.273 16.625C267.398 16.0208 267.461 15.3333 267.461 14.5625C267.461 13.6042 267.305 12.8229 266.992 12.2187C266.679 11.6146 266.147 11.3125 265.396 11.3125C264.665 11.3125 264.123 11.6146 263.768 12.2187C263.435 12.8229 263.268 13.5938 263.268 14.5313C263.268 15.3021 263.33 16 263.455 16.625C263.602 17.2292 263.831 17.7083 264.144 18.0625C264.457 18.3958 264.874 18.5729 265.396 18.5937Z" fill="black"/>
<defs>
<clipPath id="clip0_85_31">
<rect width="51" height="26" fill="white" transform="translate(2 8)"/>
</clipPath>
</defs>
</svg>
