<svg width="241" height="57" viewBox="0 0 241 57" fill="none" xmlns="http://www.w3.org/2000/svg">
<path d="M13.2712 55.9571C4.4706 55.3393 0.0703125 51.585 0.0703125 44.6944C0.0703125 40.6075 1.61327 36.283 4.69918 31.7209C6.52787 28.9646 8.81374 26.2796 11.5568 23.6659C14.3569 21.0522 17.3857 18.6999 20.6431 16.6089C23.9576 14.4704 27.3292 12.7834 30.758 11.5478C34.2439 10.3123 37.587 9.69447 40.7872 9.69447C46.4447 9.69447 49.2735 11.429 49.2735 14.8981C49.2735 17.2267 48.4163 19.8166 46.7019 22.668C44.9875 25.5193 43.2445 27.3251 41.473 28.0855C41.3015 28.133 41.1015 28.1567 40.8729 28.1567C40.7015 28.1567 40.6158 28.1092 40.6158 28.0142L43.4445 24.1649C45.3875 21.5037 46.359 19.1751 46.359 17.1792C46.359 15.7535 45.9018 14.3991 44.9875 13.116C44.0731 11.833 42.4445 11.1914 40.1015 11.1914C37.2441 11.1914 34.3011 11.8567 31.2723 13.1873C28.3007 14.5179 25.4148 16.2763 22.6146 18.4623C19.8144 20.6483 17.2714 23.0719 14.9856 25.7331C12.6997 28.3468 10.871 30.9368 9.49949 33.503C6.58502 38.968 5.12778 43.3875 5.12778 46.7616C5.12778 51.8464 8.24227 54.3888 14.4712 54.3888C20.4145 54.3888 28.4721 51.2049 38.6442 44.8369C40.9872 43.3638 43.9874 41.2966 47.6448 38.6353C51.3593 35.9741 55.7024 32.7426 60.6742 28.9408C59.9884 28.9884 59.1312 29.0597 58.1026 29.1547C57.074 29.2022 55.8739 29.321 54.5024 29.5111C53.9309 29.6062 53.388 29.7012 52.8737 29.7962C52.3594 29.8438 51.8736 29.8675 51.4165 29.8675C50.2735 29.7725 49.7878 29.5349 49.9592 29.1547C50.1878 27.3964 51.2736 26.5172 53.2166 26.5172C54.9881 26.7073 56.6454 26.8499 58.1883 26.9449C59.7884 27.04 61.3028 27.0875 62.7315 27.0875C64.9602 25.3767 67.9032 23.0006 71.5606 19.9592C75.2751 16.8703 79.6754 13.0923 84.7615 8.62523C91.3333 2.87508 95.3336 0 96.7622 0C97.3909 0 97.7051 0.475219 97.7051 1.42566C97.7051 1.80583 97.648 2.28105 97.5337 2.85132C97.4194 3.42158 97.248 4.08688 97.0194 4.84724C96.4479 6.65307 95.8479 7.74607 95.2193 8.12625C93.4477 9.17173 91.9619 10.5261 90.7618 12.1894C89.6189 13.8051 88.4474 15.611 87.2473 17.6069C86.0473 19.6503 84.9329 21.4799 83.9043 23.0957C82.9328 24.6639 82.047 26.0658 81.2469 27.3013L89.5618 27.1588C91.619 27.1588 92.6477 27.2776 92.6477 27.5152C92.6477 27.5627 92.5905 27.634 92.4762 27.729C91.5048 28.2518 87.3902 28.727 80.1326 29.1547C74.818 37.7562 72.1607 43.6489 72.1607 46.8328C72.1607 49.0189 72.9893 50.1119 74.6465 50.1119C75.2751 50.1119 76.0752 49.7792 77.0467 49.1139C77.961 48.4961 78.5325 48.1872 78.7611 48.1872C78.7611 48.0922 78.7897 48.0684 78.8468 48.1159C78.9039 48.1635 78.8754 48.1872 78.7611 48.1872C78.4754 49.0426 77.6181 49.803 76.1895 50.4683C74.818 51.1811 73.3607 51.5375 71.8178 51.5375C70.3891 51.5375 69.4462 51.1573 68.989 50.397C68.5319 49.6366 68.3033 48.5912 68.3033 47.2605C68.3033 42.4608 70.5034 36.3543 74.9037 28.9408L64.6173 29.1547C56.9597 35.3801 49.2735 40.8451 41.5587 45.5498C29.2722 52.9632 19.843 56.4323 13.2712 55.9571ZM75.6752 27.0875C76.3609 25.9945 77.7324 24.0223 79.7897 21.171C81.847 18.2722 84.6186 14.5179 88.1045 9.90832L66.1603 27.0162L75.6752 27.0875Z" fill="#CE7F7F"/>
<path d="M100.237 47.7595C97.2078 47.7595 95.6934 45.8587 95.6934 42.0569C95.6934 39.063 99.0079 33.598 105.637 25.6618C112.437 17.5356 117.609 13.4725 121.152 13.4725C121.838 13.4725 122.495 13.6626 123.124 14.0427C123.752 14.3754 124.067 14.8268 124.067 15.3971C124.067 15.3496 121.981 17.2029 117.809 20.9572C115.409 23.1432 113.237 25.1866 111.294 27.0875C109.351 28.9884 107.637 30.7704 106.151 32.4337C101.98 37.1859 99.8937 40.655 99.8937 42.841C99.8937 43.4588 100.094 44.1003 100.494 44.7656C100.951 45.3834 101.551 45.6923 102.294 45.6923C103.608 45.6923 105.008 45.2646 106.494 44.4092C107.98 43.5538 109.409 42.4846 110.78 41.2015C112.152 39.9184 113.323 38.6116 114.295 37.2809C115.266 35.9028 115.923 34.691 116.266 33.6455C115.866 32.6476 115.666 31.412 115.666 29.9388C115.666 26.3747 117.123 24.7827 120.038 25.1629C120.609 25.2104 120.981 25.448 121.152 25.8757C121.381 26.3034 121.495 26.8024 121.495 27.3726C121.495 28.5607 121.266 29.7487 120.809 30.9368C120.409 32.1248 120.095 33.1228 119.866 33.9306C120.095 35.0237 120.609 36.1404 121.409 37.2809C122.267 38.3739 123.324 38.9204 124.581 38.9204C125.838 38.9204 127.295 38.1601 128.953 36.6394C129.296 36.3067 129.638 36.1404 129.981 36.1404C130.267 36.1404 130.438 36.3067 130.496 36.6394C130.496 36.9245 130.267 37.3285 129.81 37.8512C128.038 39.6095 126.181 40.4887 124.238 40.4887C121.438 40.4887 119.181 38.7779 117.466 35.3563C116.38 37.4473 114.895 39.4432 113.009 41.3441C111.123 43.2449 109.066 44.7894 106.837 45.9775C104.665 47.1655 102.465 47.7595 100.237 47.7595Z" fill="#CE7F7F"/>
<path d="M139.773 47.6882C138.288 47.6882 137.088 47.0467 136.173 45.7636C135.545 44.8132 135.23 43.7915 135.23 42.6984C135.23 39.9422 137.659 35.9979 142.517 30.8655C147.774 25.7331 151.86 23.1669 154.774 23.1669C157.632 23.1669 159.06 24.45 159.06 27.0162C159.06 27.8241 158.946 28.6795 158.718 29.5824C158.718 29.725 159.003 29.7962 159.575 29.7962C160.375 29.7487 161.375 29.6062 162.575 29.3685C163.775 29.0834 165.032 28.7745 166.347 28.4419C167.661 28.0617 168.861 27.7053 169.947 27.3726C171.033 26.9924 171.833 26.7073 172.347 26.5172C173.49 25.7569 174.661 25.3767 175.862 25.3767C177.233 25.3767 177.919 25.8044 177.919 26.6598C177.919 26.9924 177.747 27.3013 177.404 27.5865C176.319 28.3468 175.09 29.4161 173.719 30.7942C172.404 32.1248 170.975 33.7406 169.433 35.6414C167.432 37.9225 165.947 39.9184 164.975 41.6292C164.004 43.2925 163.546 44.6231 163.604 45.621C163.775 46.1913 164.146 46.4764 164.718 46.4764C165.118 46.4764 165.747 46.3576 166.604 46.12C167.461 45.8349 168.604 45.2884 170.033 44.4805C171.461 43.6251 173.147 42.342 175.09 40.6312C175.376 40.3936 176.262 39.5858 177.747 38.2076C179.233 36.782 181.205 34.7148 183.662 32.006C185.834 29.725 187.691 28.0379 189.234 26.9449C190.834 25.8044 191.92 25.2341 192.491 25.2341C194.434 25.2341 195.491 25.8282 195.663 27.0162C195.663 27.2063 195.377 27.6578 194.806 28.3706C194.234 29.0834 193.291 30.0339 191.977 31.2219C190.377 32.8376 189.005 34.2395 187.862 35.4276C186.776 36.6156 185.919 37.5661 185.291 38.2789C182.891 41.2253 181.776 43.4113 181.948 44.8369C181.948 45.6448 182.262 46.0725 182.891 46.12C183.519 46.12 184.119 46.025 184.691 45.8349C186.576 45.2171 188.634 44.1479 190.862 42.6272C193.148 41.1065 195.806 38.8729 198.834 35.9266C199.063 35.689 199.377 35.5464 199.777 35.4989C200.177 35.4038 200.377 35.5464 200.377 35.9266C200.377 36.0216 200.32 36.1879 200.206 36.4256C200.149 36.6156 199.977 36.8295 199.692 37.0671C198.434 38.3027 197.234 39.4194 196.091 40.4174C194.948 41.4154 193.463 42.5321 191.634 43.7677C190.32 44.6706 188.948 45.6448 187.519 46.6903C186.148 47.6882 184.634 48.1872 182.976 48.1872C181.605 48.1872 180.405 47.8783 179.376 47.2605C178.405 46.5952 177.919 45.7398 177.919 44.6944C177.919 43.5538 178.119 42.5321 178.519 41.6292C178.976 40.6788 179.29 39.7283 179.462 38.7779C176.833 41.3916 174.49 43.3875 172.433 44.7656C170.433 46.1438 168.747 47.0942 167.375 47.617C166.004 48.0922 164.947 48.3298 164.204 48.3298C163.461 48.3298 162.661 48.0922 161.803 47.617C161.003 47.0942 160.461 46.2863 160.175 45.1933C159.889 44.1003 160.146 42.7222 160.946 41.0589C161.803 39.1105 163.118 36.9483 164.889 34.5722C166.661 32.1961 168.49 30.0814 170.375 28.228C169.861 28.4656 169.261 28.7508 168.575 29.0834C167.947 29.3685 167.175 29.6537 166.261 29.9388C165.575 30.1289 164.689 30.3903 163.604 30.7229C162.518 31.0556 161.461 31.3407 160.432 31.5783C159.46 31.8159 158.746 31.911 158.289 31.8634C158.975 33.4317 157.089 36.4018 152.631 40.7738C148.231 45.3834 144.345 47.6882 140.974 47.6882H139.773ZM141.231 45.4072C143.631 45.4072 146.802 43.6014 150.746 39.9897C154.403 36.283 156.232 33.6693 156.232 32.1486C155.374 31.6734 154.203 30.5804 152.717 28.8696C151.003 28.8696 148.203 30.7942 144.317 34.6435C142.545 36.5444 141.231 38.2314 140.374 39.7046C139.573 41.1777 139.173 42.3896 139.173 43.34C139.345 44.7181 140.031 45.4072 141.231 45.4072Z" fill="#CE7F7F"/>
<path d="M210.411 48.1159C208.583 48.1159 207.125 47.7595 206.04 47.0467C205.011 46.2864 204.497 44.9557 204.497 43.0549C204.497 41.9619 204.897 40.5837 205.697 38.9204C206.497 37.2097 207.497 35.3801 208.697 33.4317C209.897 31.4833 211.097 29.5586 212.297 27.6578C211.554 27.8003 210.897 27.8716 210.326 27.8716C208.611 27.8716 207.754 27.3251 207.754 26.2321C207.754 25.7094 207.983 25.3054 208.44 25.0203C208.954 24.7352 209.411 24.5688 209.811 24.5213C209.811 24.5213 209.868 24.5213 209.983 24.5213C210.154 24.5213 210.354 24.4976 210.583 24.45H215.554C216.583 23.357 217.64 22.1927 218.726 20.9572C220.269 19.3414 221.498 18.391 222.412 18.1059H222.669C223.069 18.1059 223.641 18.2722 224.384 18.6048C225.298 19.0325 225.755 19.4602 225.755 19.8879C225.755 20.5057 224.384 22.0977 221.641 24.6639C222.155 24.7114 222.898 24.7352 223.869 24.7352C224.841 24.7352 226.041 24.7352 227.469 24.7352C228.155 24.7352 229.127 24.7352 230.384 24.7352C231.698 24.7352 233.041 24.7352 234.413 24.7352C235.841 24.6876 237.07 24.6639 238.099 24.6639C239.127 24.6164 239.699 24.5926 239.813 24.5926C239.985 24.6401 240.07 24.7114 240.07 24.8064C240.07 25.2341 236.699 25.8044 229.955 26.5172C226.127 26.9449 223.184 27.2776 221.126 27.5152C219.126 27.7528 218.04 27.8954 217.869 27.9429C217.069 28.5132 216.097 29.4874 214.954 30.8655C213.811 32.2436 212.669 33.7881 211.526 35.4989C210.383 37.2097 209.411 38.8492 208.611 40.4174C207.868 41.9381 207.497 43.1261 207.497 43.9815C207.497 44.7419 207.84 45.3834 208.525 45.9062C209.211 46.3814 210.326 46.619 211.868 46.619C212.897 46.619 214.126 46.4289 215.554 46.0487C216.983 45.6686 218.326 45.2409 219.583 44.7656C220.898 44.2429 221.841 43.839 222.412 43.5538C223.898 42.7935 225.527 41.7955 227.298 40.56C229.127 39.2769 230.927 37.8274 232.698 36.2117C233.498 35.5464 234.041 35.2137 234.327 35.2137C234.499 35.2137 234.584 35.3088 234.584 35.4989C234.584 35.879 234.156 36.4968 233.298 37.3522C231.927 38.7304 230.384 40.061 228.67 41.3441C227.012 42.5796 225.155 43.7202 223.098 44.7656C220.755 45.9537 218.497 46.8091 216.326 47.3318C214.212 47.8546 212.24 48.1159 210.411 48.1159Z" fill="#CE7F7F"/>
</svg>
