<svg width="223" height="47" viewBox="0 0 223 47" fill="none" xmlns="http://www.w3.org/2000/svg">
<path d="M14.8641 46.36C10.1281 46.36 6.45878 45.1013 3.85611 42.584C1.29611 40.0666 0.0161133 36.8026 0.0161133 32.792C0.0161133 29.1226 0.912113 25.5386 2.70411 22.04C4.53878 18.5413 6.84278 15.32 9.61611 12.376C11.8774 9.98664 14.4588 7.91731 17.3601 6.16798C20.3041 4.41864 23.3761 3.05331 26.5761 2.07198C29.8188 1.09064 32.9761 0.599976 36.0481 0.599976C38.4801 0.599976 40.6774 0.94131 42.6401 1.62398C44.6028 2.26398 46.1601 3.28798 47.3121 4.69598C48.4641 6.10398 49.0401 7.93864 49.0401 10.2C49.0401 12.2053 48.5494 14.0826 47.5681 15.832C46.6294 17.5386 45.3494 19.032 43.7281 20.312C42.1494 21.592 40.4001 22.5946 38.4801 23.32C36.5601 24.0453 34.6188 24.408 32.6561 24.408C30.0961 24.408 27.9415 23.832 26.1921 22.68C24.4428 21.4853 23.5681 19.992 23.5681 18.2C23.5681 15.896 25.0401 13.6346 27.9841 11.416C28.4961 11.032 28.9014 10.84 29.2001 10.84C29.4134 10.84 29.5201 10.9253 29.5201 11.096C29.5201 11.5226 29.1788 11.864 28.4961 12.12C26.1068 14.04 24.9121 15.9813 24.9121 17.944C24.9121 19.352 25.5521 20.5466 26.8321 21.528C28.1121 22.4666 29.7121 22.936 31.6321 22.936C33.3388 22.936 35.0454 22.5733 36.7521 21.848C38.5014 21.1226 40.1014 20.1413 41.5521 18.904C43.0028 17.6666 44.1548 16.28 45.0081 14.744C45.9041 13.1653 46.3521 11.5226 46.3521 9.81598C46.3521 7.04264 45.4134 5.01598 43.5361 3.73598C41.6588 2.45598 39.2694 1.81598 36.3681 1.81598C33.0828 1.81598 29.8188 2.43464 26.5761 3.67197C23.3761 4.90931 20.3681 6.61598 17.5521 8.79198C14.7361 10.968 12.2188 13.464 10.0001 16.28C5.56278 21.8693 3.34411 27.1173 3.34411 32.024C3.34411 34.6266 3.94145 36.8453 5.13611 38.68C6.33078 40.472 7.97345 41.8373 10.0641 42.776C12.1974 43.7146 14.6294 44.184 17.3601 44.184C21.4134 44.184 25.3388 43.3093 29.1361 41.56C32.9334 39.768 36.1761 37.3786 38.8641 34.392C39.5894 33.624 40.1228 33.24 40.4641 33.24C40.7201 33.24 40.8481 33.432 40.8481 33.816C40.8481 34.328 40.6134 34.8186 40.1441 35.288C38.6934 36.824 36.9654 38.2533 34.9601 39.576C32.9548 40.8986 30.8001 42.072 28.4961 43.096C26.2348 44.12 23.9308 44.9093 21.5841 45.464C19.2374 46.0613 16.9974 46.36 14.8641 46.36Z" fill="#CE7F7F"/>
<path d="M53.6216 42.328C52.5549 42.328 51.7229 41.8373 51.1256 40.856C50.5283 39.832 50.2296 38.8506 50.2296 37.912C50.2296 35.352 52.0856 31.768 55.7976 27.16C59.5523 22.5093 62.5816 20.184 64.8856 20.184C67.0616 20.184 68.1496 21.336 68.1496 23.64C68.1496 23.9813 68.1069 24.344 68.0216 24.728C67.979 25.112 67.9149 25.5173 67.8296 25.944C67.9149 26.072 68.1283 26.136 68.4696 26.136C69.6216 26.136 70.9869 25.7306 72.5656 24.92C72.5229 25.6453 70.8376 26.6906 67.5096 28.056C67.9789 29.464 66.5709 32.152 63.2856 36.12C59.9149 40.2586 57.0349 42.328 54.6456 42.328H53.6216ZM54.7736 40.408C56.6083 40.408 58.9549 38.7226 61.8136 35.352C64.5869 32.0666 65.9736 29.6986 65.9736 28.248C65.291 27.864 64.4376 26.8826 63.4136 25.304C61.9629 25.304 59.8723 27.0533 57.1416 30.552C54.4536 33.9653 53.1523 36.5893 53.2376 38.424C53.2803 39.7466 53.7923 40.408 54.7736 40.408Z" fill="#CE7F7F"/>
<path d="M91.5896 42.328C90.4376 42.328 89.627 42.008 89.1576 41.368C88.6883 40.6853 88.4536 39.8533 88.4536 38.872C88.4536 36.3973 89.307 33.752 91.0136 30.936L95.1096 24.28C92.2083 26.4133 89.3283 29.08 86.4696 32.28C85.7016 33.1333 84.827 34.136 83.8456 35.288C82.907 36.44 81.8616 37.7626 80.7096 39.256C79.1736 41.2613 78.2563 42.264 77.9576 42.264C77.3603 42.264 76.8696 42.008 76.4856 41.496C76.1016 40.9413 75.9096 40.4506 75.9096 40.024C75.9096 39.6826 76.0163 39.064 76.2296 38.168C76.4429 37.2293 76.6989 36.4186 76.9976 35.736C77.2963 35.0106 77.5949 34.3066 77.8936 33.624C78.2349 32.8986 78.5549 32.1946 78.8536 31.512L75.0136 35.544C74.9283 35.6293 74.6723 35.8853 74.2456 36.312C73.8189 36.7386 73.4776 36.952 73.2216 36.952C73.0083 36.952 72.9016 36.8026 72.9016 36.504C72.9016 36.4186 72.9443 36.312 73.0296 36.184C73.0723 36.0133 73.2003 35.8213 73.4136 35.608C74.0536 34.968 74.715 34.2853 75.3976 33.56C76.0803 32.8346 76.7843 32.0026 77.5096 31.064C77.8936 30.5946 78.4696 29.8906 79.2376 28.952C80.0056 27.9706 80.8376 26.9253 81.7336 25.816C82.6723 24.7066 83.5469 23.6826 84.3576 22.744C84.5709 22.4453 84.8056 22.2533 85.0616 22.168C85.3176 22.04 85.4883 21.976 85.5736 21.976C86.7256 21.976 87.3016 22.424 87.3016 23.32C87.3016 23.576 87.2376 23.832 87.1096 24.088C83.2696 29.3786 80.9656 33.4106 80.1976 36.184C85.1469 31.2346 89.115 27.5226 92.1016 25.048C95.131 22.5306 97.2856 21.272 98.5656 21.272C99.2483 21.272 99.7603 21.3786 100.102 21.592C100.486 21.8053 100.678 22.2106 100.678 22.808C100.678 23.0213 100.656 23.192 100.614 23.32C100.486 23.6186 99.6109 24.8133 97.9896 26.904C97.0083 28.0986 96.1336 29.1866 95.3656 30.168C94.6403 31.1493 94.043 32.0026 93.5736 32.728C92.8056 33.9226 92.2296 35.0533 91.8456 36.12C91.4616 37.144 91.2696 38.0186 91.2696 38.744C91.2696 39.0426 91.3123 39.4053 91.3976 39.832C91.4829 40.2586 91.7389 40.472 92.1656 40.472C93.1469 40.472 94.6829 39.6186 96.7736 37.912C97.7549 37.0586 98.6723 36.2053 99.5256 35.352C100.379 34.456 101.19 33.5813 101.958 32.728C102.128 32.5573 102.406 32.2373 102.79 31.768C103.174 31.256 103.408 31 103.494 31C103.664 31 103.75 31.1706 103.75 31.512C103.75 31.6826 103.643 31.9813 103.43 32.408C103.259 32.792 103.067 33.0906 102.854 33.304C102.384 33.8586 101.68 34.6266 100.742 35.608C99.8456 36.5893 98.8216 37.592 97.6696 38.616C96.5603 39.64 95.4723 40.5146 94.4056 41.24C93.339 41.9653 92.4003 42.328 91.5896 42.328Z" fill="#CE7F7F"/>
<path d="M120.538 42.52C118.703 42.52 117.445 42.0506 116.762 41.112C116.079 40.1306 115.738 38.8293 115.738 37.208C115.738 35.416 116.293 33.2826 117.402 30.808C117.829 29.8266 118.277 28.952 118.746 28.184C119.215 27.3733 119.706 26.6266 120.218 25.944C120.047 25.9866 119.898 26.008 119.77 26.008C119.642 26.008 119.514 26.008 119.386 26.008C118.362 26.008 117.509 25.2826 116.826 23.832L112.09 29.976C109.573 33.2613 108.037 34.904 107.482 34.904C107.269 34.904 107.162 34.8186 107.162 34.648C107.162 34.4346 107.269 34.1573 107.482 33.816C107.61 33.56 107.866 33.2186 108.25 32.792C109.871 30.9146 111.365 29.0586 112.73 27.224C114.095 25.3893 115.226 23.5973 116.122 21.848C117.103 18.136 118.341 16.28 119.834 16.28C120.815 16.28 121.306 16.728 121.306 17.624C121.306 18.4346 120.773 19.5013 119.706 20.824C118.682 22.1466 118.17 22.8293 118.17 22.872C118.17 23.768 118.831 24.216 120.154 24.216C120.922 24.216 121.775 23.9386 122.714 23.384L124.378 22.36C124.463 22.3173 124.591 22.296 124.762 22.296C125.274 22.296 125.722 22.5093 126.106 22.936C126.49 23.3626 126.618 23.7466 126.49 24.088L122.074 29.656C119.343 33.1546 117.978 35.9706 117.978 38.104C117.978 40.024 118.917 40.984 120.794 40.984C122.074 40.984 123.439 40.6 124.89 39.832C126.383 39.064 127.813 38.1253 129.178 37.016C130.586 35.864 131.759 34.7546 132.698 33.688L134.234 31.896C134.319 31.8106 134.426 31.704 134.554 31.576C134.682 31.448 134.789 31.384 134.874 31.384C135.173 31.384 135.322 31.5333 135.322 31.832C135.322 31.9173 135.279 32.0666 135.194 32.28C135.109 32.4933 134.959 32.728 134.746 32.984L132.698 35.288C131.717 36.3973 130.501 37.528 129.05 38.68C127.642 39.7893 126.17 40.7066 124.634 41.432C123.141 42.1573 121.775 42.52 120.538 42.52Z" fill="#CE7F7F"/>
<path d="M143.358 42.52C142.334 42.52 141.31 42.1573 140.286 41.432C139.262 40.7066 138.686 39.8533 138.558 38.872C138.131 35.5866 140.2 31.6826 144.766 27.16C149.288 22.6373 153.363 20.376 156.99 20.376C157.971 20.376 158.739 20.6106 159.294 21.08C159.592 21.3786 159.806 21.784 159.934 22.296C160.104 22.808 160.232 23.064 160.318 23.064C160.488 23.064 160.638 23.0426 160.766 23C160.894 22.9146 161.043 22.872 161.214 22.872C161.726 22.872 162.174 23.064 162.558 23.448C162.942 23.832 163.155 24.1733 163.198 24.472C163.24 24.5573 161.875 26.6693 159.102 30.808C156.328 34.8613 155.07 37.6133 155.326 39.064C155.539 40.0453 156.008 40.536 156.734 40.536C158.952 40.536 163.006 36.8666 168.894 29.528C169.022 29.3573 169.15 29.272 169.278 29.272C169.491 29.272 169.598 29.4213 169.598 29.72C169.598 30.0613 169.406 30.488 169.022 31C163.603 38.296 159.443 41.944 156.542 41.944C156.158 41.944 155.795 41.88 155.454 41.752C153.576 41.0266 152.638 39.6186 152.638 37.528C152.638 36.8026 152.723 36.0773 152.894 35.352L148.926 39.192C147.731 40.3866 146.643 41.24 145.662 41.752C144.723 42.264 143.955 42.52 143.358 42.52ZM142.782 41.112C145.256 41.112 148.627 38.4026 152.894 32.984L159.678 23.64C159.336 23.0426 158.782 22.744 158.014 22.744C155.411 22.744 151.891 24.8346 147.454 29.016C142.846 33.2826 140.776 36.8026 141.246 39.576C141.459 40.6 141.971 41.112 142.782 41.112Z" fill="#CE7F7F"/>
<path d="M176.709 43.032C175.343 43.032 174.106 42.6053 172.997 41.752C171.887 40.856 171.333 39.6826 171.333 38.232C171.333 35.2026 173.189 31.7466 176.901 27.864C180.698 23.9386 184.09 21.976 187.077 21.976C188.101 21.976 188.911 22.2533 189.509 22.808C190.106 23.32 190.405 23.96 190.405 24.728C190.405 25.7946 190.149 26.776 189.637 27.672C189.039 28.7813 188.186 29.336 187.077 29.336C185.967 29.336 185.413 28.9946 185.413 28.312C185.413 27.8426 185.69 27.1386 186.245 26.2C186.842 25.2186 187.141 24.7066 187.141 24.664C187.141 24.5786 187.077 24.536 186.949 24.536C185.754 24.664 184.09 25.5386 181.957 27.16C181.018 27.8853 180.186 28.568 179.461 29.208C178.778 29.848 178.223 30.4666 177.797 31.064L175.301 34.712C175.045 35.096 174.767 35.7573 174.469 36.696C174.213 37.6346 174.085 38.3386 174.085 38.808C174.085 39.6613 174.362 40.3653 174.917 40.92C175.514 41.4746 176.261 41.752 177.157 41.752C179.29 41.752 182.106 40.3653 185.605 37.592C188.421 35.3733 190.682 33.1333 192.389 30.872C192.602 30.616 192.858 30.488 193.157 30.488C193.455 30.488 193.605 30.5733 193.605 30.744C193.605 30.872 193.498 31.0853 193.285 31.384C190.938 34.4986 188.186 37.1866 185.029 39.448C181.658 41.8373 178.885 43.032 176.709 43.032Z" fill="#CE7F7F"/>
<path d="M200.338 42.584C198.972 42.584 197.884 42.264 197.074 41.624C196.306 40.9413 195.922 39.7466 195.922 38.04C195.922 37.0586 196.22 35.8213 196.818 34.328C197.415 32.792 198.162 31.1493 199.058 29.4C199.954 27.6506 200.85 25.9226 201.746 24.216C201.191 24.344 200.7 24.408 200.274 24.408C198.994 24.408 198.354 23.9173 198.354 22.936C198.354 22.4666 198.524 22.104 198.866 21.848C199.25 21.592 199.591 21.4426 199.89 21.4C199.89 21.4 199.932 21.4 200.018 21.4C200.146 21.4 200.295 21.3786 200.466 21.336H204.178C204.946 20.3546 205.735 19.3093 206.546 18.2C207.698 16.7493 208.615 15.896 209.298 15.64H209.49C209.788 15.64 210.215 15.7893 210.77 16.088C211.452 16.472 211.794 16.856 211.794 17.24C211.794 17.7946 210.77 19.224 208.722 21.528C209.106 21.5706 209.66 21.592 210.386 21.592C211.111 21.592 212.007 21.592 213.074 21.592C213.586 21.592 214.311 21.592 215.25 21.592C216.231 21.592 217.234 21.592 218.258 21.592C219.324 21.5493 220.242 21.528 221.01 21.528C221.778 21.4853 222.204 21.464 222.29 21.464C222.418 21.5066 222.482 21.5706 222.482 21.656C222.482 22.04 219.964 22.552 214.93 23.192C212.071 23.576 209.874 23.8746 208.338 24.088C206.844 24.3013 206.034 24.4293 205.906 24.472C205.308 24.984 204.583 25.8586 203.73 27.096C202.876 28.3333 202.023 29.72 201.17 31.256C200.316 32.792 199.591 34.264 198.994 35.672C198.439 37.0373 198.162 38.104 198.162 38.872C198.162 39.5546 198.418 40.1306 198.93 40.6C199.442 41.0266 200.274 41.24 201.426 41.24C202.194 41.24 203.111 41.0693 204.178 40.728C205.244 40.3866 206.247 40.0026 207.186 39.576C208.167 39.1066 208.871 38.744 209.298 38.488C210.407 37.8053 211.623 36.9093 212.946 35.8C214.311 34.648 215.655 33.3466 216.978 31.896C217.575 31.2986 217.98 31 218.194 31C218.322 31 218.386 31.0853 218.386 31.256C218.386 31.5973 218.066 32.152 217.426 32.92C216.402 34.1573 215.25 35.352 213.97 36.504C212.732 37.6133 211.346 38.6373 209.81 39.576C208.06 40.6426 206.375 41.4106 204.754 41.88C203.175 42.3493 201.703 42.584 200.338 42.584Z" fill="#CE7F7F"/>
</svg>
