<svg width="680" height="60" viewBox="0 0 680 60" fill="none" xmlns="http://www.w3.org/2000/svg">
<path d="M660.743 46.128C659.676 46.128 658.844 45.6373 658.247 44.656C657.649 43.632 657.351 42.6507 657.351 41.712C657.351 39.152 659.207 35.568 662.919 30.96C666.673 26.3093 669.703 23.984 672.007 23.984C674.183 23.984 675.271 25.136 675.271 27.44C675.271 27.7813 675.228 28.144 675.143 28.528C675.1 28.912 675.036 29.3173 674.951 29.744C675.036 29.872 675.249 29.936 675.591 29.936C676.743 29.936 678.108 29.5307 679.687 28.72C679.644 29.4453 677.959 30.4907 674.631 31.856C675.1 33.264 673.692 35.952 670.407 39.92C667.036 44.0587 664.156 46.128 661.767 46.128H660.743ZM661.895 44.208C663.729 44.208 666.076 42.5227 668.935 39.152C671.708 35.8667 673.095 33.4987 673.095 32.048C672.412 31.664 671.559 30.6827 670.535 29.104C669.084 29.104 666.993 30.8533 664.263 34.352C661.575 37.7653 660.273 40.3893 660.359 42.224C660.401 43.5467 660.913 44.208 661.895 44.208Z" fill="#CE7F7F"/>
<path d="M651.297 23.984C650.572 23.984 649.932 23.7494 649.377 23.28C648.865 22.8107 648.609 22.2774 648.609 21.68C648.609 20.4854 649.42 19.888 651.041 19.888C651.639 19.888 652.236 20.1014 652.833 20.528C653.431 20.912 653.729 21.4027 653.729 22C653.729 22.512 653.452 22.9814 652.897 23.408C652.343 23.792 651.809 23.984 651.297 23.984ZM639.457 46.704C638.519 46.704 637.751 46.4054 637.153 45.808C636.513 45.168 636.193 44.0587 636.193 42.48C636.193 41.584 636.407 40.56 636.833 39.408C637.217 38.2134 637.708 37.0187 638.305 35.824C638.945 34.6294 639.564 33.5627 640.161 32.624C642.551 28.7414 644.513 26.7787 646.049 26.736C646.433 26.736 646.903 26.9067 647.457 27.248C648.012 27.5467 648.289 27.888 648.289 28.272C648.289 28.272 646.668 30.3627 643.425 34.544C640.225 38.6827 638.625 41.6267 638.625 43.376C638.625 44.7414 639.159 45.424 640.225 45.424C640.908 45.424 641.783 45.1467 642.849 44.592C643.959 43.9947 645.111 43.248 646.305 42.352C647.5 41.456 648.631 40.496 649.697 39.472C650.807 38.448 651.703 37.5094 652.385 36.656C652.812 36.1014 653.175 35.7174 653.473 35.504C653.815 35.2907 654.028 35.184 654.113 35.184C654.284 35.184 654.369 35.312 654.369 35.568C654.369 35.7814 654.113 36.208 653.601 36.848C653.132 37.488 652.471 38.2347 651.617 39.088C650.593 40.112 649.463 41.2214 648.225 42.416C646.988 43.6107 645.644 44.6347 644.193 45.488C642.743 46.2987 641.164 46.704 639.457 46.704Z" fill="#CE7F7F"/>
<path d="M620.054 46.128C618.817 46.128 617.665 45.8294 616.598 45.232C615.531 44.592 614.998 43.5467 614.998 42.096C614.998 40.0907 615.702 37.7014 617.11 34.928C618.561 32.1547 620.203 29.2747 622.038 26.288C627.03 18.1814 630.571 14.128 632.662 14.128C633.089 14.128 633.515 14.2987 633.942 14.64C634.411 14.9387 634.667 15.28 634.71 15.664L630.23 21.68C628.481 24.0267 626.902 26.2027 625.494 28.208C624.086 30.1707 622.87 31.9414 621.846 33.52C621.334 34.3307 620.758 35.248 620.118 36.272C619.478 37.296 618.902 38.3627 618.39 39.472C617.921 40.5387 617.686 41.6267 617.686 42.736C617.686 43.248 617.835 43.7174 618.134 44.144C618.433 44.528 618.966 44.72 619.734 44.72C621.099 44.72 622.891 43.9947 625.11 42.544C627.329 41.0507 629.526 39.0027 631.702 36.4C631.915 36.144 632.15 35.9094 632.406 35.696C632.662 35.4827 632.875 35.376 633.046 35.376C633.259 35.376 633.366 35.504 633.366 35.76C633.366 35.888 633.217 36.144 632.918 36.528C632.662 36.8694 632.449 37.1467 632.278 37.36L630.742 39.088C629.889 40.0267 628.865 41.0507 627.67 42.16C626.518 43.2694 625.281 44.208 623.958 44.976C622.678 45.744 621.377 46.128 620.054 46.128Z" fill="#CE7F7F"/>
<path d="M593.542 46.128C592.476 46.128 591.644 45.6373 591.046 44.656C590.449 43.632 590.15 42.6507 590.15 41.712C590.15 39.152 592.006 35.568 595.718 30.96C599.473 26.3093 602.502 23.984 604.806 23.984C606.982 23.984 608.07 25.136 608.07 27.44C608.07 27.7813 608.028 28.144 607.942 28.528C607.9 28.912 607.836 29.3173 607.75 29.744C607.836 29.872 608.049 29.936 608.39 29.936C609.542 29.936 610.908 29.5307 612.486 28.72C612.444 29.4453 610.758 30.4907 607.43 31.856C607.9 33.264 606.492 35.952 603.206 39.92C599.836 44.0587 596.956 46.128 594.566 46.128H593.542ZM594.694 44.208C596.529 44.208 598.876 42.5227 601.734 39.152C604.508 35.8667 605.894 33.4987 605.894 32.048C605.212 31.664 604.358 30.6827 603.334 29.104C601.884 29.104 599.793 30.8533 597.062 34.352C594.374 37.7653 593.073 40.3893 593.158 42.224C593.201 43.5467 593.713 44.208 594.694 44.208Z" fill="#CE7F7F"/>
<path d="M558.011 59.12C556.731 59.12 555.643 58.5867 554.747 57.52C553.851 56.4533 553.382 55.3013 553.339 54.064C553.467 53.552 553.659 53.296 553.915 53.296C554.171 53.296 554.32 53.616 554.363 54.256C554.406 54.9387 554.747 55.6 555.387 56.24C556.027 56.88 556.667 57.2 557.307 57.2C560.934 57.2 564.24 54.96 567.227 50.48C568.038 49.2853 569.04 47.5573 570.235 45.296C571.43 42.992 572.752 40.112 574.203 36.656L577.659 28.336C573.392 28.2933 571.259 27.7813 571.259 26.8C571.259 26.3307 571.472 25.968 571.899 25.712C572.326 25.4133 572.667 25.264 572.923 25.264C572.966 25.264 573.499 25.2853 574.523 25.328C575.547 25.328 577.019 25.3493 578.939 25.392C583.12 16.0907 586.96 11.44 590.459 11.44C591.824 11.44 593.168 12.08 594.491 13.36C594.832 13.7013 595.003 14.1493 595.003 14.704C595.003 16.0267 594.619 16.688 593.851 16.688C593.638 16.688 593.424 16.5173 593.211 16.176C593.04 15.8773 592.763 15.6427 592.379 15.472C591.995 15.2587 591.632 15.152 591.291 15.152C590.011 15.152 588.88 15.6427 587.899 16.624C586.96 17.5627 586.064 18.8 585.211 20.336C584.4 21.872 583.526 23.5573 582.587 25.392H583.355C588.006 25.392 591.099 25.328 592.635 25.2C592.806 25.2427 592.891 25.328 592.891 25.456C592.891 25.7973 591.376 26.2667 588.347 26.864C587.152 27.0347 585.979 27.2267 584.827 27.44C583.675 27.6533 582.502 27.8667 581.307 28.08C580.752 29.2747 580.07 30.704 579.259 32.368C578.448 33.9893 577.531 35.8027 576.507 37.808C574.502 41.5627 572.859 44.5493 571.579 46.768C570.299 48.9867 569.403 50.4587 568.891 51.184C565.179 56.4747 561.552 59.12 558.011 59.12Z" fill="#CE7F7F"/>
<path d="M543.618 46.384C542.253 46.384 541.165 46.064 540.354 45.424C539.586 44.7413 539.202 43.5467 539.202 41.84C539.202 40.8587 539.501 39.6213 540.098 38.128C540.695 36.592 541.442 34.9493 542.338 33.2C543.234 31.4507 544.13 29.7227 545.026 28.016C544.471 28.144 543.981 28.208 543.554 28.208C542.274 28.208 541.634 27.7173 541.634 26.736C541.634 26.2667 541.805 25.904 542.146 25.648C542.53 25.392 542.871 25.2427 543.17 25.2C543.17 25.2 543.213 25.2 543.298 25.2C543.426 25.2 543.575 25.1787 543.746 25.136H547.458C548.226 24.1547 549.016 23.1093 549.826 22C550.978 20.5493 551.895 19.696 552.578 19.44H552.77C553.069 19.44 553.496 19.5893 554.05 19.888C554.733 20.272 555.074 20.656 555.074 21.04C555.074 21.5947 554.05 23.024 552.002 25.328C552.386 25.3707 552.941 25.392 553.666 25.392C554.391 25.392 555.287 25.392 556.354 25.392C556.866 25.392 557.591 25.392 558.53 25.392C559.511 25.392 560.514 25.392 561.538 25.392C562.605 25.3493 563.522 25.328 564.29 25.328C565.058 25.2853 565.485 25.264 565.57 25.264C565.698 25.3067 565.762 25.3707 565.762 25.456C565.762 25.84 563.245 26.352 558.21 26.992C555.351 27.376 553.154 27.6747 551.618 27.888C550.125 28.1013 549.314 28.2293 549.186 28.272C548.589 28.784 547.863 29.6587 547.01 30.896C546.157 32.1333 545.303 33.52 544.45 35.056C543.597 36.592 542.872 38.064 542.274 39.472C541.72 40.8373 541.442 41.904 541.442 42.672C541.442 43.3547 541.698 43.9307 542.21 44.4C542.722 44.8267 543.554 45.04 544.706 45.04C545.474 45.04 546.391 44.8693 547.458 44.528C548.525 44.1867 549.527 43.8027 550.466 43.376C551.447 42.9067 552.151 42.544 552.578 42.288C553.687 41.6053 554.903 40.7093 556.226 39.6C557.591 38.448 558.936 37.1467 560.258 35.696C560.856 35.0987 561.261 34.8 561.474 34.8C561.602 34.8 561.666 34.8853 561.666 35.056C561.666 35.3973 561.346 35.952 560.706 36.72C559.682 37.9573 558.53 39.152 557.25 40.304C556.013 41.4133 554.626 42.4373 553.09 43.376C551.341 44.4427 549.655 45.2107 548.034 45.68C546.455 46.1493 544.983 46.384 543.618 46.384Z" fill="#CE7F7F"/>
<path d="M521.119 46.32C519.285 46.32 518.026 45.8507 517.343 44.912C516.661 43.9307 516.319 42.6294 516.319 41.008C516.319 39.216 516.874 37.0827 517.983 34.608C518.41 33.6267 518.858 32.752 519.327 31.984C519.796 31.1734 520.287 30.4267 520.799 29.744C520.629 29.7867 520.479 29.808 520.351 29.808C520.223 29.808 520.095 29.808 519.967 29.808C518.943 29.808 518.09 29.0827 517.407 27.632L512.671 33.776C510.154 37.0614 508.618 38.704 508.063 38.704C507.85 38.704 507.743 38.6187 507.743 38.448C507.743 38.2347 507.85 37.9574 508.063 37.616C508.191 37.36 508.447 37.0187 508.831 36.592C510.453 34.7147 511.946 32.8587 513.311 31.024C514.676 29.1894 515.807 27.3974 516.703 25.648C517.685 21.936 518.922 20.08 520.415 20.08C521.396 20.08 521.887 20.528 521.887 21.424C521.887 22.2347 521.354 23.3014 520.287 24.624C519.263 25.9467 518.751 26.6294 518.751 26.672C518.751 27.568 519.413 28.016 520.735 28.016C521.503 28.016 522.356 27.7387 523.295 27.184L524.959 26.16C525.045 26.1174 525.173 26.096 525.343 26.096C525.855 26.096 526.303 26.3094 526.687 26.736C527.071 27.1627 527.199 27.5467 527.071 27.888L522.655 33.456C519.924 36.9547 518.559 39.7707 518.559 41.904C518.559 43.824 519.498 44.784 521.375 44.784C522.655 44.784 524.021 44.4 525.471 43.632C526.965 42.864 528.394 41.9254 529.759 40.816C531.167 39.664 532.341 38.5547 533.279 37.488L534.815 35.696C534.901 35.6107 535.007 35.504 535.135 35.376C535.263 35.248 535.37 35.184 535.455 35.184C535.754 35.184 535.903 35.3334 535.903 35.632C535.903 35.7174 535.86 35.8667 535.775 36.08C535.69 36.2934 535.54 36.528 535.327 36.784L533.279 39.088C532.298 40.1974 531.082 41.328 529.631 42.48C528.223 43.5894 526.751 44.5067 525.215 45.232C523.722 45.9574 522.357 46.32 521.119 46.32Z" fill="#CE7F7F"/>
<path d="M486.414 46.128C485.348 46.128 484.516 45.6373 483.918 44.656C483.321 43.632 483.022 42.6507 483.022 41.712C483.022 39.152 484.878 35.568 488.59 30.96C492.345 26.3093 495.374 23.984 497.678 23.984C499.854 23.984 500.942 25.136 500.942 27.44C500.942 27.7813 500.9 28.144 500.814 28.528C500.772 28.912 500.708 29.3173 500.622 29.744C500.708 29.872 500.921 29.936 501.262 29.936C502.414 29.936 503.78 29.5307 505.358 28.72C505.316 29.4453 503.63 30.4907 500.302 31.856C500.772 33.264 499.364 35.952 496.078 39.92C492.708 44.0587 489.828 46.128 487.438 46.128H486.414ZM487.566 44.208C489.401 44.208 491.748 42.5227 494.606 39.152C497.38 35.8667 498.766 33.4987 498.766 32.048C498.084 31.664 497.23 30.6827 496.206 29.104C494.756 29.104 492.665 30.8533 489.934 34.352C487.246 37.7653 485.945 40.3893 486.03 42.224C486.073 43.5467 486.585 44.208 487.566 44.208Z" fill="#CE7F7F"/>
<path d="M423.27 52.912C419.942 52.912 417.296 52.1227 415.334 50.544C413.371 49.008 412.39 46.768 412.39 43.824C412.39 41.6907 412.838 39.6854 413.734 37.808C414.672 35.888 415.931 34.1814 417.51 32.688C419.088 31.1947 420.88 30.0214 422.886 29.168C424.934 28.3147 427.067 27.888 429.286 27.888C431.547 27.888 433.318 28.4 434.598 29.424C435.92 30.448 436.582 31.8347 436.582 33.584C436.582 34.864 435.75 36.528 434.086 38.576C432.422 40.624 431.59 41.3067 431.59 40.624C431.59 40.4534 431.654 40.2827 431.782 40.112C433.147 38.1067 433.83 36.2294 433.83 34.48C433.83 32.9014 433.318 31.6427 432.294 30.704C431.312 29.7654 430.011 29.296 428.39 29.296C426.598 29.296 424.87 29.744 423.206 30.64C421.584 31.4934 420.134 32.6454 418.854 34.096C417.574 35.5467 416.571 37.1467 415.846 38.896C415.12 40.6454 414.758 42.3734 414.758 44.08C414.758 46.4267 415.504 48.1974 416.998 49.392C418.534 50.6294 420.539 51.248 423.014 51.248C425.531 51.248 427.942 50.7787 430.246 49.84C432.592 48.944 434.683 47.6427 436.518 45.936C438.694 43.888 440.891 40.9014 443.11 36.976L448.678 26.928C450.128 24.624 451.643 21.8507 453.222 18.608C454.8 15.3227 456.464 11.568 458.214 7.34403C452.07 7.2587 446.096 7.85603 440.294 9.13603C434.107 10.4587 429.52 12.2934 426.534 14.64C425.254 15.5787 424.614 16.56 424.614 17.584C424.614 18.48 425.104 19.2267 426.086 19.824C427.11 20.3787 428.39 20.656 429.926 20.656C430.822 20.656 431.888 20.528 433.126 20.272C434.363 20.016 435.558 19.6747 436.71 19.248C437.862 18.7787 438.736 18.2667 439.334 17.712C439.76 17.3707 440.059 17.2 440.23 17.2C440.571 17.2 440.635 17.3707 440.422 17.712C439.526 18.7787 438.352 19.6747 436.902 20.4C435.494 21.1254 434 21.68 432.422 22.064C430.843 22.4054 429.371 22.576 428.006 22.576C425.915 22.576 424.272 22.1707 423.078 21.36C421.926 20.5067 421.35 19.4187 421.35 18.096C421.35 16.56 422.118 15.0667 423.654 13.616C426.555 10.8 431.739 8.70937 439.206 7.34403C442.107 6.83203 445.222 6.46936 448.55 6.25603C451.878 6.00003 455.419 5.89337 459.174 5.93603C460.112 5.12536 461.008 4.72003 461.862 4.72003C462.715 4.72003 463.035 5.16803 462.822 6.06403C465.51 6.2347 468.219 6.57603 470.95 7.08803C473.723 7.60003 476.24 8.32537 478.502 9.26403C480.806 10.16 482.662 11.2907 484.07 12.656C485.478 13.9787 486.182 15.5574 486.182 17.392C486.182 19.3547 485.52 21.232 484.198 23.024C482.918 24.7734 481.254 26.3307 479.206 27.696C477.2 29.0614 475.088 30.1494 472.87 30.96C470.822 31.6854 468.624 32.2614 466.278 32.688C463.974 33.1147 461.691 33.328 459.43 33.328C457.723 33.328 456.08 33.2 454.502 32.944C452.966 32.688 451.558 32.2827 450.278 31.728C447.675 35.5254 445.499 38.6187 443.75 41.008C442.043 43.3974 440.72 45.0614 439.782 46C435.174 50.608 429.67 52.912 423.27 52.912ZM457.83 31.792C459.408 31.792 460.966 31.6427 462.502 31.344C464.08 31.0027 465.766 30.5547 467.558 30C469.35 29.4027 471.163 28.656 472.998 27.76C474.832 26.8214 476.518 25.776 478.054 24.624C479.59 23.4294 480.827 22.1707 481.766 20.848C482.704 19.4827 483.174 18.1174 483.174 16.752C483.174 15.216 482.534 13.8934 481.254 12.784C479.974 11.632 478.288 10.6934 476.198 9.96803C474.107 9.2427 471.846 8.68803 469.414 8.30403C466.982 7.87737 464.635 7.60003 462.374 7.47203L460.326 13.872C459.6 15.7067 458.576 17.84 457.254 20.272C455.931 22.704 454.31 25.4347 452.39 28.464L450.982 30.64C451.28 30.8107 451.6 30.96 451.942 31.088C452.326 31.1734 452.731 31.2587 453.158 31.344C453.968 31.5147 454.758 31.6427 455.526 31.728C456.294 31.7707 457.062 31.792 457.83 31.792Z" fill="#CE7F7F"/>
<path d="M368.511 46.128C366.505 46.128 365.012 45.4667 364.031 44.144C363.092 42.8213 362.324 40.9867 361.727 38.64C360.959 39.408 360.425 39.792 360.127 39.792C359.913 39.792 359.807 39.6213 359.807 39.28C359.807 39.024 359.913 38.7893 360.127 38.576C360.127 38.576 360.66 37.9147 361.727 36.592C362.836 35.2693 364.692 33.4133 367.295 31.024L375.359 23.472C376.468 22.4053 377.343 21.5947 377.983 21.04C378.665 20.4853 379.156 20.208 379.455 20.208C380.82 20.208 381.503 20.72 381.503 21.744C381.503 22.256 381.225 22.8533 380.671 23.536C380.244 24.048 379.924 24.4533 379.711 24.752C379.54 25.008 379.433 25.1573 379.391 25.2C378.623 26.5227 377.919 28.8907 377.279 32.304C376.809 34.8213 376.404 36.8907 376.063 38.512C375.721 40.1333 375.444 41.3067 375.231 42.032C377.023 41.9893 378.793 41.4347 380.543 40.368C382.292 39.3013 384.169 37.552 386.175 35.12C386.26 35.0347 386.388 34.9067 386.559 34.736C386.729 34.5653 386.9 34.48 387.071 34.48C387.327 34.48 387.455 34.5867 387.455 34.8C387.455 35.0133 387.391 35.2267 387.263 35.44C387.135 35.6533 387.007 35.8453 386.879 36.016C385.556 37.5947 384.319 38.896 383.167 39.92C382.015 40.9013 380.799 41.6907 379.519 42.288C378.239 42.8427 376.724 43.312 374.975 43.696L372.927 45.04C372.372 45.424 371.711 45.7013 370.943 45.872C370.175 46.0427 369.364 46.128 368.511 46.128ZM369.279 42.864C370.26 42.864 371.071 42.6293 371.711 42.16C372.18 41.904 372.628 41.2 373.055 40.048C373.524 38.8533 373.972 37.3813 374.399 35.632C374.74 34.1387 374.996 32.688 375.167 31.28C375.38 29.8293 375.572 28.4427 375.743 27.12L375.999 24.944C375.017 25.6693 373.78 26.7147 372.287 28.08C370.793 29.4453 369.321 30.8747 367.871 32.368C366.42 33.8613 365.481 34.9707 365.055 35.696C364.628 36.3787 364.393 36.8907 364.351 37.232C364.18 38.9387 364.585 40.304 365.567 41.328C366.591 42.352 367.828 42.864 369.279 42.864Z" fill="#CE7F7F"/>
<path d="M350.627 0.304016H356.387L346.083 16.816H342.371L350.627 0.304016Z" fill="#CE7F7F"/>
<path d="M320.302 46.832C318.936 46.832 317.699 46.4054 316.59 45.552C315.48 44.656 314.926 43.4827 314.926 42.032C314.926 39.0027 316.782 35.5467 320.494 31.664C324.291 27.7387 327.683 25.776 330.67 25.776C331.651 25.776 332.44 26.0534 333.038 26.608C333.678 27.12 333.998 27.76 333.998 28.528C333.998 30.9174 332.099 33.264 328.302 35.568C324.931 37.616 322.094 38.64 319.79 38.64C319.448 38.64 319.15 38.5974 318.894 38.512C318.254 39.664 317.934 40.88 317.934 42.16C317.934 44.3787 318.979 45.488 321.07 45.488C323.203 45.488 325.955 44.0587 329.326 41.2C331.928 39.1094 334.147 36.8907 335.982 34.544C336.366 34.032 336.707 33.776 337.006 33.776C337.262 33.776 337.39 33.904 337.39 34.16C337.39 34.416 337.219 34.7787 336.878 35.248C335.683 36.8267 334.403 38.2774 333.038 39.6C331.672 40.9227 330.2 42.1387 328.622 43.248C325.336 45.6374 322.563 46.832 320.302 46.832ZM320.686 37.232C322.307 37.232 324.419 36.4214 327.022 34.8C327.875 34.2027 328.707 33.5414 329.518 32.816C330.371 32.048 331.054 31.28 331.566 30.512C332.12 29.744 332.398 29.0614 332.398 28.464C332.398 27.9094 331.95 27.632 331.054 27.632C329.774 27.632 327.982 28.592 325.678 30.512C324.568 31.4507 323.502 32.4747 322.478 33.584C321.454 34.6934 320.579 35.8667 319.854 37.104C320.11 37.1894 320.387 37.232 320.686 37.232Z" fill="#CE7F7F"/>
<path d="M295.605 46.384C294.24 46.384 293.152 46.064 292.341 45.424C291.573 44.7413 291.189 43.5467 291.189 41.84C291.189 40.8587 291.488 39.6213 292.085 38.128C292.683 36.592 293.429 34.9493 294.325 33.2C295.221 31.4507 296.117 29.7227 297.013 28.016C296.459 28.144 295.968 28.208 295.541 28.208C294.261 28.208 293.621 27.7173 293.621 26.736C293.621 26.2667 293.792 25.904 294.133 25.648C294.517 25.392 294.859 25.2427 295.157 25.2C295.157 25.2 295.2 25.2 295.285 25.2C295.413 25.2 295.563 25.1787 295.733 25.136H299.445C300.213 24.1547 301.003 23.1093 301.813 22C302.965 20.5493 303.883 19.696 304.565 19.44H304.757C305.056 19.44 305.483 19.5893 306.037 19.888C306.72 20.272 307.061 20.656 307.061 21.04C307.061 21.5947 306.037 23.024 303.989 25.328C304.373 25.3707 304.928 25.392 305.653 25.392C306.379 25.392 307.275 25.392 308.341 25.392C308.853 25.392 309.579 25.392 310.517 25.392C311.499 25.392 312.501 25.392 313.525 25.392C314.592 25.3493 315.509 25.328 316.277 25.328C317.045 25.2853 317.472 25.264 317.557 25.264C317.685 25.3067 317.749 25.3707 317.749 25.456C317.749 25.84 315.232 26.352 310.197 26.992C307.339 27.376 305.141 27.6747 303.605 27.888C302.112 28.1013 301.301 28.2293 301.173 28.272C300.576 28.784 299.851 29.6587 298.997 30.896C298.144 32.1333 297.291 33.52 296.437 35.056C295.584 36.592 294.859 38.064 294.261 39.472C293.707 40.8373 293.429 41.904 293.429 42.672C293.429 43.3547 293.685 43.9307 294.197 44.4C294.709 44.8267 295.541 45.04 296.693 45.04C297.461 45.04 298.379 44.8693 299.445 44.528C300.512 44.1867 301.515 43.8027 302.453 43.376C303.435 42.9067 304.139 42.544 304.565 42.288C305.675 41.6053 306.891 40.7093 308.213 39.6C309.579 38.448 310.923 37.1467 312.245 35.696C312.843 35.0987 313.248 34.8 313.461 34.8C313.589 34.8 313.653 34.8853 313.653 35.056C313.653 35.3973 313.333 35.952 312.693 36.72C311.669 37.9573 310.517 39.152 309.237 40.304C308 41.4133 306.613 42.4373 305.077 43.376C303.328 44.4427 301.643 45.2107 300.021 45.68C298.443 46.1493 296.971 46.384 295.605 46.384Z" fill="#CE7F7F"/>
<path d="M263.151 46.32C262.127 46.32 261.103 45.9574 260.079 45.232C259.055 44.5067 258.479 43.6534 258.351 42.672C257.924 39.3867 259.993 35.4827 264.559 30.96C269.081 26.4374 273.156 24.176 276.783 24.176C277.764 24.176 278.532 24.4107 279.087 24.88C279.385 25.1787 279.599 25.584 279.727 26.096C279.897 26.608 280.025 26.864 280.111 26.864C280.281 26.864 280.431 26.8427 280.559 26.8C280.687 26.7147 280.836 26.672 281.007 26.672C281.519 26.672 281.967 26.864 282.351 27.248C282.735 27.632 282.948 27.9734 282.991 28.272C283.033 28.3574 281.668 30.4694 278.895 34.608C276.121 38.6614 274.863 41.4134 275.119 42.864C275.332 43.8454 275.801 44.336 276.527 44.336C278.745 44.336 282.799 40.6667 288.687 33.328C288.815 33.1574 288.943 33.072 289.071 33.072C289.284 33.072 289.391 33.2214 289.391 33.52C289.391 33.8614 289.199 34.288 288.815 34.8C283.396 42.096 279.236 45.744 276.335 45.744C275.951 45.744 275.588 45.68 275.247 45.552C273.369 44.8267 272.431 43.4187 272.431 41.328C272.431 40.6027 272.516 39.8774 272.687 39.152L268.719 42.992C267.524 44.1867 266.436 45.04 265.455 45.552C264.516 46.064 263.748 46.32 263.151 46.32ZM262.575 44.912C265.049 44.912 268.42 42.2027 272.687 36.784L279.471 27.44C279.129 26.8427 278.575 26.544 277.807 26.544C275.204 26.544 271.684 28.6347 267.247 32.816C262.639 37.0827 260.569 40.6027 261.039 43.376C261.252 44.4 261.764 44.912 262.575 44.912Z" fill="#CE7F7F"/>
<path d="M239.289 46.832C237.924 46.832 236.686 46.4054 235.577 45.552C234.468 44.656 233.913 43.4827 233.913 42.032C233.913 39.0027 235.769 35.5467 239.481 31.664C243.278 27.7387 246.67 25.776 249.657 25.776C250.638 25.776 251.428 26.0534 252.025 26.608C252.665 27.12 252.985 27.76 252.985 28.528C252.985 30.9174 251.086 33.264 247.289 35.568C243.918 37.616 241.081 38.64 238.777 38.64C238.436 38.64 238.137 38.5974 237.881 38.512C237.241 39.664 236.921 40.88 236.921 42.16C236.921 44.3787 237.966 45.488 240.057 45.488C242.19 45.488 244.942 44.0587 248.313 41.2C250.916 39.1094 253.134 36.8907 254.969 34.544C255.353 34.032 255.694 33.776 255.993 33.776C256.249 33.776 256.377 33.904 256.377 34.16C256.377 34.416 256.206 34.7787 255.865 35.248C254.67 36.8267 253.39 38.2774 252.025 39.6C250.66 40.9227 249.188 42.1387 247.609 43.248C244.324 45.6374 241.55 46.832 239.289 46.832ZM239.673 37.232C241.294 37.232 243.406 36.4214 246.009 34.8C246.862 34.2027 247.694 33.5414 248.505 32.816C249.358 32.048 250.041 31.28 250.553 30.512C251.108 29.744 251.385 29.0614 251.385 28.464C251.385 27.9094 250.937 27.632 250.041 27.632C248.761 27.632 246.969 28.592 244.665 30.512C243.556 31.4507 242.489 32.4747 241.465 33.584C240.441 34.6934 239.566 35.8667 238.841 37.104C239.097 37.1894 239.374 37.232 239.673 37.232Z" fill="#CE7F7F"/>
<path d="M217.494 46.32C215.66 46.32 214.401 45.8507 213.718 44.912C213.036 43.9307 212.694 42.6294 212.694 41.008C212.694 39.216 213.249 37.0827 214.358 34.608C214.785 33.6267 215.233 32.752 215.702 31.984C216.172 31.1734 216.662 30.4267 217.174 29.744C217.004 29.7867 216.854 29.808 216.726 29.808C216.598 29.808 216.47 29.808 216.342 29.808C215.318 29.808 214.465 29.0827 213.782 27.632L209.046 33.776C206.529 37.0614 204.993 38.704 204.438 38.704C204.225 38.704 204.118 38.6187 204.118 38.448C204.118 38.2347 204.225 37.9574 204.438 37.616C204.566 37.36 204.822 37.0187 205.206 36.592C206.828 34.7147 208.321 32.8587 209.686 31.024C211.052 29.1894 212.182 27.3974 213.078 25.648C214.06 21.936 215.297 20.08 216.79 20.08C217.772 20.08 218.262 20.528 218.262 21.424C218.262 22.2347 217.729 23.3014 216.662 24.624C215.638 25.9467 215.126 26.6294 215.126 26.672C215.126 27.568 215.788 28.016 217.11 28.016C217.878 28.016 218.731 27.7387 219.67 27.184L221.334 26.16C221.42 26.1174 221.548 26.096 221.718 26.096C222.23 26.096 222.678 26.3094 223.062 26.736C223.446 27.1627 223.574 27.5467 223.446 27.888L219.03 33.456C216.299 36.9547 214.934 39.7707 214.934 41.904C214.934 43.824 215.873 44.784 217.75 44.784C219.03 44.784 220.396 44.4 221.846 43.632C223.34 42.864 224.769 41.9254 226.134 40.816C227.542 39.664 228.716 38.5547 229.654 37.488L231.19 35.696C231.276 35.6107 231.382 35.504 231.51 35.376C231.638 35.248 231.745 35.184 231.83 35.184C232.129 35.184 232.278 35.3334 232.278 35.632C232.278 35.7174 232.236 35.8667 232.15 36.08C232.065 36.2934 231.916 36.528 231.702 36.784L229.654 39.088C228.673 40.1974 227.457 41.328 226.006 42.48C224.598 43.5894 223.126 44.5067 221.59 45.232C220.097 45.9574 218.732 46.32 217.494 46.32Z" fill="#CE7F7F"/>
<path d="M168.432 50.16C163.696 50.16 160.027 48.9014 157.424 46.384C154.864 43.8667 153.584 40.6027 153.584 36.592C153.584 32.9227 154.48 29.3387 156.272 25.84C158.107 22.3414 160.411 19.12 163.184 16.176C165.445 13.7867 168.027 11.7174 170.928 9.96803C173.872 8.21869 176.944 6.85336 180.144 5.87202C183.387 4.89069 186.544 4.40002 189.616 4.40002C192.048 4.40002 194.245 4.74136 196.208 5.42403C198.171 6.06403 199.728 7.08803 200.88 8.49603C202.032 9.90402 202.608 11.7387 202.608 14C202.608 16.0054 202.117 17.8827 201.136 19.632C200.197 21.3387 198.917 22.832 197.296 24.112C195.717 25.392 193.968 26.3947 192.048 27.12C190.128 27.8454 188.187 28.208 186.224 28.208C183.664 28.208 181.509 27.632 179.76 26.48C178.011 25.2854 177.136 23.792 177.136 22C177.136 19.696 178.608 17.4347 181.552 15.216C182.064 14.832 182.469 14.64 182.768 14.64C182.981 14.64 183.088 14.7254 183.088 14.896C183.088 15.3227 182.747 15.664 182.064 15.92C179.675 17.84 178.48 19.7814 178.48 21.744C178.48 23.152 179.12 24.3467 180.4 25.328C181.68 26.2667 183.28 26.736 185.2 26.736C186.907 26.736 188.613 26.3734 190.32 25.648C192.069 24.9227 193.669 23.9414 195.12 22.704C196.571 21.4667 197.723 20.08 198.576 18.544C199.472 16.9654 199.92 15.3227 199.92 13.616C199.92 10.8427 198.981 8.81602 197.104 7.53603C195.227 6.25602 192.837 5.61602 189.936 5.61602C186.651 5.61602 183.387 6.23469 180.144 7.47202C176.944 8.70936 173.936 10.416 171.12 12.592C168.304 14.768 165.787 17.264 163.568 20.08C159.131 25.6694 156.912 30.9174 156.912 35.824C156.912 38.4267 157.509 40.6454 158.704 42.48C159.899 44.272 161.541 45.6374 163.632 46.576C165.765 47.5147 168.197 47.984 170.928 47.984C174.981 47.984 178.907 47.1094 182.704 45.36C186.501 43.568 189.744 41.1787 192.432 38.192C193.157 37.424 193.691 37.04 194.032 37.04C194.288 37.04 194.416 37.232 194.416 37.616C194.416 38.128 194.181 38.6187 193.712 39.088C192.261 40.624 190.533 42.0534 188.528 43.376C186.523 44.6987 184.368 45.872 182.064 46.896C179.803 47.92 177.499 48.7094 175.152 49.264C172.805 49.8614 170.565 50.16 168.432 50.16Z" fill="#CE7F7F"/>
<path d="M101.933 46.704C100.013 46.704 99.053 45.488 99.053 43.056C99.053 42.1174 99.3303 41.008 99.885 39.728C100.482 38.4054 101.314 37.0187 102.381 35.568C102.381 35.568 101.997 35.9307 101.229 36.656C100.461 37.3814 99.5863 38.2987 98.605 39.408C98.4343 39.5787 98.221 39.664 97.965 39.664C97.7943 39.664 97.709 39.5574 97.709 39.344C97.709 39.1307 97.901 38.768 98.285 38.256L107.117 27.888C108.226 26.608 109.442 25.968 110.765 25.968C111.746 25.968 112.237 26.352 112.237 27.12C112.237 27.4187 112.109 27.696 111.853 27.952C111.042 28.72 110.04 29.808 108.845 31.216C107.693 32.624 106.562 34.1387 105.453 35.76C104.344 37.3814 103.405 38.9387 102.637 40.432C101.912 41.8827 101.549 43.056 101.549 43.952C101.549 44.72 101.805 45.104 102.317 45.104C102.616 45.104 103.085 44.9974 103.725 44.784C104.365 44.528 105.218 44.0374 106.285 43.312C107.352 42.544 108.632 41.3707 110.125 39.792C110.381 39.536 111.064 38.768 112.173 37.488C113.282 36.208 114.776 34.3734 116.653 31.984C119.981 27.8454 122.157 25.776 123.181 25.776C124.589 25.776 125.357 26.352 125.485 27.504C125.57 27.888 124.674 29.1467 122.797 31.28C120.365 34.224 118.701 36.336 117.805 37.616C116.141 40.048 115.309 41.9467 115.309 43.312C115.309 44.2507 115.629 44.72 116.269 44.72C116.909 44.72 117.72 44.4214 118.701 43.824C119.725 43.184 120.792 42.3947 121.901 41.456C123.01 40.4747 124.077 39.472 125.101 38.448C126.168 37.3814 127.085 36.4 127.853 35.504C128.109 35.2054 128.365 35.056 128.621 35.056C128.877 35.056 129.005 35.184 129.005 35.44C129.005 35.5254 128.984 35.6534 128.941 35.824C128.898 35.9947 128.77 36.1867 128.557 36.4C127.874 37.168 127 38.128 125.933 39.28C124.866 40.3894 123.714 41.4987 122.477 42.608C121.24 43.7174 120.045 44.6347 118.893 45.36C117.741 46.0854 116.76 46.448 115.949 46.448C114.968 46.448 114.114 46.192 113.389 45.68C112.664 45.1254 112.301 44.3787 112.301 43.44C112.301 42.5014 112.45 41.5627 112.749 40.624C113.048 39.6427 113.282 38.8107 113.453 38.128C111.448 40.4747 109.677 42.2667 108.141 43.504C106.648 44.7414 105.389 45.5734 104.365 46C103.341 46.4694 102.53 46.704 101.933 46.704Z" fill="#CE7F7F"/>
<path d="M92.2319 23.984C91.5066 23.984 90.8666 23.7494 90.3119 23.28C89.7999 22.8107 89.5439 22.2774 89.5439 21.68C89.5439 20.4854 90.3546 19.888 91.9759 19.888C92.5733 19.888 93.1706 20.1014 93.7679 20.528C94.3653 20.912 94.6639 21.4027 94.6639 22C94.6639 22.512 94.3866 22.9814 93.8319 23.408C93.2773 23.792 92.7439 23.984 92.2319 23.984ZM80.3919 46.704C79.4533 46.704 78.6853 46.4054 78.0879 45.808C77.4479 45.168 77.1279 44.0587 77.1279 42.48C77.1279 41.584 77.3413 40.56 77.7679 39.408C78.1519 38.2134 78.6426 37.0187 79.2399 35.824C79.8799 34.6294 80.4986 33.5627 81.0959 32.624C83.4853 28.7414 85.4479 26.7787 86.9839 26.736C87.3679 26.736 87.8373 26.9067 88.3919 27.248C88.9466 27.5467 89.2239 27.888 89.2239 28.272C89.2239 28.272 87.6026 30.3627 84.3599 34.544C81.1599 38.6827 79.5599 41.6267 79.5599 43.376C79.5599 44.7414 80.0933 45.424 81.1599 45.424C81.8426 45.424 82.7173 45.1467 83.7839 44.592C84.8933 43.9947 86.0453 43.248 87.2399 42.352C88.4346 41.456 89.5653 40.496 90.6319 39.472C91.7413 38.448 92.6373 37.5094 93.3199 36.656C93.7466 36.1014 94.1093 35.7174 94.4079 35.504C94.7493 35.2907 94.9626 35.184 95.0479 35.184C95.2186 35.184 95.3039 35.312 95.3039 35.568C95.3039 35.7814 95.0479 36.208 94.5359 36.848C94.0666 37.488 93.4053 38.2347 92.5519 39.088C91.5279 40.112 90.3973 41.2214 89.1599 42.416C87.9226 43.6107 86.5786 44.6347 85.1279 45.488C83.6773 46.2987 82.0986 46.704 80.3919 46.704Z" fill="#CE7F7F"/>
<path d="M59.4804 50.288C58.7124 50.288 58.2004 50.096 57.9444 49.712C57.1764 48.6027 56.7924 47.2587 56.7924 45.68C56.7924 42.0107 58.7551 36.7414 62.6804 29.872C65.1978 25.5627 69.0804 19.76 74.3284 12.464C72.1097 14.2987 69.6991 16.4107 67.0964 18.8C64.4937 21.1894 61.6991 23.8347 58.7124 26.736C54.8298 30.5334 51.6511 33.8827 49.1764 36.784C46.7444 39.6427 44.9951 42.0107 43.9284 43.888C42.8191 45.8934 41.4751 46.896 39.8964 46.896C39.1711 46.896 38.8084 46.64 38.8084 46.128C38.8084 45.9574 38.8724 45.7867 39.0004 45.616C39.7257 44.464 40.6644 42.9494 41.8164 41.072C42.9684 39.152 44.3338 36.8694 45.9124 34.224C50.5204 26.2027 53.8271 19.824 55.8324 15.088C56.5578 13.296 56.9204 11.9947 56.9204 11.184C56.9204 10.5014 56.6858 10.16 56.2164 10.16C55.5764 10.16 54.5738 10.736 53.2084 11.888C48.4724 15.856 43.1604 21.3814 37.2724 28.464C34.7978 31.408 32.6217 34.1387 30.7444 36.656C28.9097 39.1307 27.3524 41.3707 26.0724 43.376C25.0484 44.9547 24.5364 46.0854 24.5364 46.768C24.5364 47.024 24.6217 47.1947 24.7924 47.28C25.0057 47.408 25.1124 47.472 25.1124 47.472C25.1124 47.5147 24.7284 47.8347 23.9604 48.432C23.2777 48.7734 22.5097 48.944 21.6564 48.944C19.9071 48.944 19.1604 48.5387 19.4164 47.728C20.0137 45.808 21.9977 42.3307 25.3684 37.296C29.7631 30.768 32.6218 26.3094 33.9444 23.92C36.8031 18.7574 38.2324 14.64 38.2324 11.568C38.2324 9.4347 37.6778 7.92003 36.5684 7.02403C35.4591 6.12803 33.7737 5.68003 31.5124 5.68003C26.5204 5.68003 21.3577 7.83469 16.0244 12.144C13.7204 14.0214 11.5657 16.1547 9.56041 18.544C7.55508 20.8907 5.93375 23.344 4.69641 25.904C3.45908 28.464 2.84041 30.9814 2.84041 33.456C2.84041 37.8934 4.93108 40.112 9.11241 40.112C14.0191 40.112 17.8164 38.3414 20.5044 34.8C21.5284 33.392 22.0404 32.0694 22.0404 30.832C22.0404 30.1067 21.8271 29.616 21.4004 29.36C21.3577 29.3174 21.3364 29.2534 21.3364 29.168C21.3364 28.9974 21.4644 28.912 21.7204 28.912C22.8297 28.912 23.3844 29.6374 23.3844 31.088C23.3844 31.984 23.0004 33.1147 22.2324 34.48C21.2511 36.1867 19.7791 37.6374 17.8164 38.832C15.3417 40.368 12.6111 41.136 9.62441 41.136C6.72308 41.136 4.39775 40.2187 2.64841 38.384C0.899081 36.5494 0.0244141 34.1387 0.0244141 31.152C0.0244141 24.4107 4.41908 17.52 13.2084 10.48C14.8297 9.20003 16.7497 8.11203 18.9684 7.21603C21.2297 6.27736 23.5551 5.57336 25.9444 5.10403C28.3337 4.59203 30.5311 4.33603 32.5364 4.33603C35.4378 4.33603 37.6351 4.8267 39.1284 5.80803C40.6644 6.7467 41.4324 8.4107 41.4324 10.8C41.4324 13.7867 40.2164 17.8187 37.7844 22.896C37.0164 24.4747 35.2884 27.3547 32.6004 31.536L37.5284 25.264C38.7658 23.6427 40.4298 21.7227 42.5204 19.504C44.6111 17.2854 47.0858 14.768 49.9444 11.952C51.1818 10.7574 52.5898 9.73336 54.1684 8.88003C55.7471 8.0267 57.0911 7.60003 58.2004 7.60003C59.7364 7.60003 60.5044 8.4107 60.5044 10.032C60.5044 11.44 59.9284 13.36 58.7764 15.792C57.2404 19.0347 55.3204 22.8107 53.0164 27.12C52.2911 28.4427 51.8004 29.5734 51.5444 30.512C51.2884 31.4507 51.1178 31.984 51.0324 32.112C51.2031 31.8987 51.6084 31.408 52.2484 30.64C52.9311 29.8294 53.8698 28.7414 55.0644 27.376C56.5151 25.7547 58.2431 23.984 60.2484 22.064C62.2538 20.1014 64.5577 18.0107 67.1604 15.792L77.4004 7.34403C78.2111 6.66136 78.9364 6.32003 79.5764 6.32003C80.1737 6.32003 80.6004 6.6827 80.8564 7.40803C81.1551 8.0907 81.4537 8.9867 81.7524 10.096C81.9658 10.8214 80.9417 12.336 78.6804 14.64C73.3471 20.1014 68.7391 26.2027 64.8564 32.944C61.3151 39.1734 59.5444 43.6747 59.5444 46.448C59.5444 47.6854 59.9498 48.304 60.7604 48.304C61.2724 48.304 62.5524 47.856 64.6004 46.96C66.3924 46.1494 67.5657 45.68 68.1204 45.552C68.3337 45.6374 68.4404 45.744 68.4404 45.872C68.4404 46.512 67.3097 47.408 65.0484 48.56C62.8297 49.712 60.9738 50.288 59.4804 50.288Z" fill="#CE7F7F"/>
</svg>
