<svg width="241" height="57" viewBox="0 0 241 57" fill="none" xmlns="http://www.w3.org/2000/svg">
<path d="M17.0046 56C16.0443 56 15.5641 55.4268 15.5641 54.2804C15.5641 53.1838 16.0443 51.7882 17.0046 50.0935L32.4491 29.3084C37.1971 22.9284 40.7181 17.6947 43.0121 13.6075C45.3061 9.52025 46.4532 6.62928 46.4532 4.93458C46.4532 4.13707 46.1331 3.53894 45.4929 3.14019C44.8527 2.74143 44.1058 2.46729 43.2522 2.31776C42.3986 2.16822 41.5984 2.09346 40.8515 2.09346C36.3169 2.09346 29.995 4.68536 21.886 9.86916C19.592 11.3146 17.4847 12.9346 15.5641 14.729C13.6436 16.5234 11.8564 18.4424 10.2026 20.486C7.00164 24.5732 5.40118 28.0125 5.40118 30.8037C5.40118 32.947 6.46815 34.243 8.60211 34.6916C9.40234 34.891 10.3093 34.9907 11.3229 34.9907C13.2435 34.9907 15.164 34.5421 17.0846 33.6449C19.0051 32.7477 20.8724 31.6012 22.6862 30.2056C24.0733 29.109 24.8735 28.5608 25.0869 28.5608C25.3003 28.5608 25.3803 28.7352 25.327 29.0841C25.0069 30.1308 24.2333 31.1277 23.0063 32.0748C21.7793 33.0218 20.3122 33.8941 18.605 34.6916C16.8979 35.4393 15.164 36.0374 13.4035 36.486C11.6963 36.8847 10.1759 37.0841 8.84218 37.0841C6.70822 37.0841 4.84101 36.5857 3.24054 35.5888C1.64007 34.5421 0.839844 33.0218 0.839844 31.028C0.839844 27.9875 2.73373 24.2492 6.5215 19.8131C10.1492 15.5265 14.6305 11.7134 19.9654 8.37383C22.1527 6.97819 24.7135 5.65732 27.6477 4.41122C30.5819 3.11526 33.5427 2.06854 36.5303 1.27103C39.5178 0.423677 42.1852 0 44.5326 0C48.7472 0 50.8544 1.29595 50.8544 3.88785C50.8544 7.02804 48.3204 12.4361 43.2522 20.1122C39.6778 25.3956 34.9565 31.676 29.0881 38.9533C24.2333 44.9844 21.7793 48 21.7259 48C21.886 48 24.4467 45.433 29.4082 40.2991C32.4491 37.109 35.3032 34.2679 37.9707 31.7757C40.6915 29.2336 43.1989 27.0156 45.4929 25.1215C46.6132 24.1745 47.9736 23.0031 49.5741 21.6075C51.1745 20.162 53.0417 18.4922 55.1757 16.5981C57.0429 15.0031 58.8568 13.5576 60.6173 12.2617C62.4311 10.9657 64.085 10.3178 65.5787 10.3178C67.1259 10.3178 68.1395 10.6667 68.6196 11.3645C63.7115 17.0467 59.1235 24 54.8556 32.2243C51.8147 38.1059 50.2943 42.567 50.2943 45.6075C50.2943 47.4019 50.8011 48.6978 51.8147 49.4953C52.8283 50.2928 54.1621 50.6916 55.8159 50.6916C57.6297 50.6916 59.5236 50.2181 61.4975 49.271C63.5248 48.324 65.5254 47.1028 67.4993 45.6075C69.4732 44.1122 71.3137 42.5421 73.0209 40.8972C79.156 35.1153 84.0375 28.8598 87.6652 22.1308C90.4927 16.8474 91.9064 12.6355 91.9064 9.49533C91.9064 9.19626 91.8797 8.92212 91.8264 8.6729C91.8264 8.42368 91.7997 8.19938 91.7464 8C90.626 8 89.4257 7.45171 88.1453 6.35514C87.3451 5.75701 86.945 5.13396 86.945 4.48598C86.945 3.88785 87.2117 3.38941 87.7452 2.99066C88.2787 2.5919 88.8922 2.39252 89.5857 2.39252C90.5994 2.39252 91.3463 2.8162 91.8264 3.66355C92.0398 4.0623 92.4666 4.56075 93.1068 5.15888C93.5335 5.55763 93.7203 5.8567 93.6669 6.05607C93.987 6.50467 94.5205 6.72897 95.2674 6.72897C96.0143 6.72897 96.7078 6.42991 97.348 5.83178C98.0415 5.23364 98.7884 4.93458 99.5887 4.93458C100.015 4.93458 100.229 5.08411 100.229 5.38318C100.229 5.93147 99.722 6.45483 98.7084 6.95327C98.1749 7.30218 97.5347 7.52648 96.7878 7.62617C96.361 7.67601 95.9343 7.72586 95.5075 7.7757C95.0807 7.7757 94.6539 7.72586 94.2271 7.62617C94.8673 9.61994 95.1874 11.0903 95.1874 12.0374C95.1874 16.0249 93.1601 21.1838 89.1056 27.514C87.0783 30.7041 84.7576 33.7196 82.1435 36.5607C79.5295 39.4019 76.5953 42.0685 73.341 44.5607C66.8858 49.6449 61.1508 52.1869 56.136 52.1869C50.641 52.1869 47.8936 49.7944 47.8936 45.0093C47.8936 42.7664 48.4004 40.2243 49.414 37.3832C50.4276 34.4922 51.628 31.6262 53.0151 28.7851L58.7767 17.0467C56.4294 18.7414 54.5088 20.1371 53.0151 21.2336C51.5746 22.2804 50.3476 23.1776 49.334 23.9252C48.3737 24.6729 47.4401 25.4455 46.5332 26.243C45.6796 26.9907 44.6393 27.9128 43.4123 29.0093C42.0785 30.2555 40.2914 32.0498 38.0507 34.3925C35.81 36.6854 33.1959 39.5514 30.2084 42.9907L20.9257 53.6075C20.3922 54.2056 19.7787 54.7539 19.0852 55.2523C18.3916 55.7508 17.6981 56 17.0046 56Z" fill="#CE7F7F"/>
<path d="M101.891 47.7757C100.557 47.7757 99.5165 47.2025 98.7697 46.0561C98.0228 44.8598 97.6493 43.7134 97.6493 42.6168C97.6493 39.6262 99.97 35.4393 104.611 30.0561C109.306 24.6231 113.094 21.9065 115.975 21.9065C118.695 21.9065 120.056 23.2523 120.056 25.9439C120.056 26.3427 120.003 26.7664 119.896 27.215C119.842 27.6636 119.762 28.1371 119.656 28.6355C119.762 28.785 120.029 28.8598 120.456 28.8598C121.896 28.8598 123.604 28.3863 125.577 27.4393C125.524 28.2866 123.417 29.5078 119.256 31.1028C119.842 32.7477 118.082 35.8879 113.974 40.5234C109.76 45.3583 106.158 47.7757 103.171 47.7757H101.891ZM103.331 45.5327C105.625 45.5327 108.559 43.5639 112.134 39.6262C115.601 35.7882 117.335 33.0218 117.335 31.3271C116.482 30.8785 115.415 29.7321 114.134 27.8879C112.32 27.8879 109.706 29.9315 106.292 34.0187C102.931 38.0062 101.304 41.0717 101.41 43.215C101.464 44.7601 102.104 45.5327 103.331 45.5327Z" fill="#CE7F7F"/>
<path d="M145.283 48C142.989 48 141.415 47.4517 140.562 46.3551C139.708 45.2087 139.281 43.6885 139.281 41.7944C139.281 39.7009 139.975 37.2087 141.362 34.3178C141.896 33.1713 142.456 32.1495 143.043 31.2523C143.629 30.3053 144.243 29.433 144.883 28.6355C144.67 28.6854 144.483 28.7103 144.323 28.7103C144.163 28.7103 144.003 28.7103 143.843 28.7103C142.562 28.7103 141.495 27.8629 140.642 26.1682L134.72 33.3458C131.573 37.1838 129.652 39.1028 128.958 39.1028C128.692 39.1028 128.558 39.0031 128.558 38.8037C128.558 38.5545 128.692 38.2305 128.958 37.8318C129.119 37.5327 129.439 37.134 129.919 36.6355C131.946 34.4424 133.813 32.2741 135.52 30.1308C137.228 27.9875 138.641 25.8941 139.762 23.8505C140.989 19.514 142.536 17.3458 144.403 17.3458C145.63 17.3458 146.244 17.8692 146.244 18.9159C146.244 19.8629 145.577 21.109 144.243 22.6542C142.963 24.1994 142.322 24.9969 142.322 25.0467C142.322 26.0935 143.149 26.6168 144.803 26.6168C145.763 26.6168 146.83 26.2928 148.004 25.6449L150.085 24.4486C150.191 24.3988 150.351 24.3738 150.565 24.3738C151.205 24.3738 151.765 24.6231 152.245 25.1215C152.725 25.6199 152.885 26.0685 152.725 26.4673L147.204 32.972C143.789 37.0592 142.082 40.3489 142.082 42.8411C142.082 45.0841 143.256 46.2056 145.603 46.2056C147.204 46.2056 148.911 45.757 150.725 44.8598C152.592 43.9626 154.379 42.866 156.086 41.5701C157.847 40.2243 159.314 38.9284 160.488 37.6822L162.408 35.5888C162.515 35.4891 162.648 35.3645 162.808 35.215C162.968 35.0654 163.102 34.9907 163.208 34.9907C163.582 34.9907 163.769 35.1651 163.769 35.514C163.769 35.6137 163.715 35.7882 163.609 36.0374C163.502 36.2866 163.315 36.5608 163.048 36.8598L160.488 39.5514C159.261 40.8474 157.74 42.1682 155.926 43.514C154.166 44.81 152.325 45.8816 150.405 46.729C148.538 47.5763 146.83 48 145.283 48Z" fill="#CE7F7F"/>
<path d="M184.859 48.5234C183.099 48.5234 181.525 48.0498 180.138 47.1028C178.804 46.1558 177.63 44.9595 176.617 43.514C175.656 42.0685 174.83 40.6231 174.136 39.1776C173.763 39.6262 173.362 40.1994 172.936 40.8972C172.562 41.595 172.109 42.4174 171.575 43.3645L169.095 48C167.174 47.3022 166.214 46.3551 166.214 45.1589C166.214 43.0156 169.708 37.0592 176.697 27.2897C183.472 17.8193 188.14 12.2368 190.701 10.5421C190.968 10.3925 191.394 10.3178 191.981 10.3178C193.635 10.3178 194.462 10.7165 194.462 11.514C194.462 11.6636 194.089 12.2118 193.342 13.1589C192.595 14.0561 191.661 15.1526 190.541 16.4486C189.42 17.7445 188.273 19.0654 187.1 20.4112C185.979 21.7072 184.993 22.8536 184.139 23.8505C183.285 24.7975 182.805 25.3956 182.698 25.6449C187.553 23.3022 191.421 22.1308 194.302 22.1308C195.422 22.1308 196.436 22.4299 197.343 23.028C198.303 23.6262 199.05 24.3489 199.583 25.1963C200.117 26.0436 200.33 26.866 200.224 27.6636C199.797 30.5047 197.663 32.8474 193.822 34.6916C190.727 36.2368 187.9 37.0093 185.339 37.0093C182.565 37.0093 180.645 36.6854 179.578 36.0374C179.257 35.9875 178.991 36.0623 178.777 36.2617C178.617 36.4112 178.591 36.6604 178.697 37.0093C180.191 43.19 182.672 46.2804 186.14 46.2804C187.847 46.2804 190.114 45.3583 192.941 43.514C195.822 41.6698 198.863 38.9782 202.064 35.4393C202.438 35.0903 202.784 34.9159 203.104 34.9159C203.371 34.9159 203.505 35.0654 203.505 35.3645C203.505 35.6137 203.318 35.9875 202.944 36.486C201.397 38.2305 199.583 40.0499 197.503 41.9439C195.476 43.7882 193.368 45.3583 191.181 46.6542C188.994 47.9003 186.886 48.5234 184.859 48.5234ZM180.218 35.0654C182.618 35.0654 185.766 34.1433 189.661 32.2991C194.142 30.2056 196.382 27.9875 196.382 25.6449C196.382 25.2461 196.142 24.8474 195.662 24.4486C195.182 24.0498 194.675 23.8505 194.142 23.8505C191.261 23.8505 187.9 24.8972 184.059 26.9907C179.844 29.3832 177.284 32 176.377 34.8411C176.963 34.8411 177.71 34.891 178.617 34.9907C179.578 35.0405 180.111 35.0654 180.218 35.0654Z" fill="#CE7F7F"/>
<path d="M217.153 47.7757C214.646 47.7757 212.778 47.0031 211.551 45.4579C210.378 43.9128 209.417 41.7695 208.67 39.028C207.71 39.9252 207.043 40.3738 206.67 40.3738C206.403 40.3738 206.27 40.1745 206.27 39.7757C206.27 39.4766 206.403 39.2025 206.67 38.9533C206.67 38.9533 207.337 38.1807 208.67 36.6355C210.058 35.0903 212.378 32.9221 215.632 30.1308L225.715 21.3084C227.103 20.0623 228.196 19.1153 228.996 18.4673C229.85 17.8193 230.463 17.4953 230.837 17.4953C232.544 17.4953 233.398 18.0935 233.398 19.2897C233.398 19.8879 233.051 20.5857 232.357 21.3832C231.824 21.9813 231.424 22.4548 231.157 22.8037C230.944 23.1028 230.81 23.2773 230.757 23.3271C229.797 24.8723 228.916 27.6386 228.116 31.6262C227.529 34.567 227.022 36.9844 226.596 38.8785C226.169 40.7726 225.822 42.1433 225.555 42.9907C227.796 42.9408 230.01 42.2928 232.197 41.0467C234.385 39.8006 236.732 37.757 239.239 34.9159C239.346 34.8162 239.506 34.6667 239.72 34.4673C239.933 34.2679 240.146 34.1682 240.36 34.1682C240.68 34.1682 240.84 34.2928 240.84 34.5421C240.84 34.7913 240.76 35.0405 240.6 35.2897C240.44 35.5389 240.28 35.7632 240.12 35.9626C238.466 37.8069 236.919 39.3271 235.478 40.5234C234.038 41.6698 232.517 42.5919 230.917 43.2897C229.316 43.9377 227.423 44.486 225.235 44.9346L222.675 46.5047C221.981 46.9533 221.154 47.2773 220.194 47.4766C219.234 47.676 218.22 47.7757 217.153 47.7757ZM218.113 43.9626C219.34 43.9626 220.354 43.6885 221.154 43.1402C221.741 42.8411 222.301 42.0187 222.835 40.6729C223.421 39.2773 223.982 37.5576 224.515 35.514C224.942 33.7695 225.262 32.0748 225.475 30.4299C225.742 28.7352 225.982 27.1153 226.196 25.5701L226.516 23.028C225.289 23.8754 223.742 25.0966 221.874 26.6916C220.007 28.2866 218.167 29.9564 216.353 31.7009C214.539 33.4455 213.365 34.7414 212.832 35.5888C212.298 36.3863 212.005 36.9844 211.951 37.3832C211.738 39.3769 212.245 40.972 213.472 42.1682C214.752 43.3645 216.299 43.9626 218.113 43.9626Z" fill="#CE7F7F"/>
</svg>
